<svg width="91" height="90" viewBox="0 0 91 90" fill="none" xmlns="http://www.w3.org/2000/svg">
<g clip-path="url(#clip0_181_810)">
<path d="M30.0408 89.388C29.8248 89.388 29.6088 89.352 29.3928 89.352C26.4408 89.316 23.7768 88.38 21.4368 86.58C20.9328 86.184 20.4288 85.788 19.9608 85.356C18.8088 84.348 18.0528 83.052 17.4768 81.648C16.7928 80.064 16.6488 78.408 16.8288 76.716C16.9728 75.384 17.0808 74.052 17.2248 72.72C17.2608 72.432 17.2968 72.18 17.3688 71.856C17.2248 71.856 17.1168 71.856 16.9728 71.856C16.2888 71.892 15.6048 71.964 14.9208 72C13.6968 72.036 12.4368 72.108 11.2128 72.036C8.44079 71.856 5.99279 70.884 3.76079 69.228C3.00479 68.688 2.42879 67.968 2.03279 67.104C1.78079 66.6 1.52879 66.096 1.27679 65.592C0.952789 64.908 0.880789 64.188 0.772789 63.468C0.700789 62.784 0.628789 62.1 0.628789 61.416C0.556789 59.652 1.02479 57.96 1.70879 56.34C3.22079 52.776 5.74079 50.112 8.98079 48.096C10.3128 47.268 11.1408 46.908 13.7688 45.9C13.6248 45.756 13.5168 45.648 13.4088 45.54C13.1928 45.396 12.9768 45.252 12.7608 45.072C12.4008 44.82 12.0408 44.676 11.6088 44.604C10.2408 44.46 9.01679 43.92 7.86479 43.236C4.08479 40.968 1.63679 37.728 0.736789 33.408C0.376789 31.788 0.376789 30.132 0.484789 28.476C0.484789 26.604 0.952789 24.84 1.81679 23.148C2.39279 21.996 3.18479 20.988 3.97679 20.016C5.66879 17.964 7.90079 16.848 10.4928 16.452C11.5008 16.272 12.5088 16.38 13.5168 16.488C14.5248 16.596 15.5688 16.704 16.5768 16.812C16.9728 16.848 17.3688 16.92 17.8008 16.956C17.8008 16.776 17.8008 16.596 17.8008 16.416C17.7648 15.948 17.7288 15.444 17.6928 14.976C17.6568 13.68 17.5848 12.384 17.6568 11.124C17.7288 9.108 18.3048 7.236 19.2048 5.436C19.6368 4.572 20.1408 3.744 20.7888 3.024C21.2208 2.52 21.7248 2.124 22.3008 1.8C22.8768 1.512 23.4528 1.224 24.0288 0.936001C24.6768 0.612001 25.3968 0.504001 26.1168 0.432001C26.9088 0.360001 27.7368 0.288001 28.5288 0.288001C30.0048 0.252001 31.4448 0.648001 32.8128 1.152C36.5568 2.592 39.4008 5.148 41.5248 8.532C42.9648 10.872 43.9368 13.392 44.4768 16.128C44.5128 16.056 44.5488 15.984 44.5488 15.948C44.6208 15.768 44.6568 15.588 44.7648 15.444C45.0528 15.084 45.0888 14.652 45.0528 14.22C45.0168 13.716 45.0528 13.212 45.0168 12.708C44.8008 9.864 46.0968 7.524 47.7888 5.436C49.5168 3.348 51.6408 1.764 54.1968 0.864001C55.9608 0.216001 57.7968 1.41934e-06 59.6688 0.0360014C61.3248 0.0360014 62.9088 0.180001 64.4928 0.684001C66.3288 1.26 67.8408 2.304 69.3528 3.456C71.2608 4.968 72.3768 6.912 72.9888 9.216C73.2768 10.332 73.3128 11.448 73.1688 12.6C73.0248 13.932 72.9168 15.3 72.7728 16.632C72.7368 16.92 72.7008 17.208 72.6288 17.568C72.8808 17.568 73.0968 17.532 73.3128 17.532C74.0688 17.496 74.8608 17.424 75.6168 17.424C76.7688 17.424 77.9208 17.352 79.0728 17.46C81.8808 17.748 84.4008 18.756 86.5968 20.556C87.1368 20.988 87.5328 21.528 87.8208 22.14C88.0728 22.644 88.3248 23.148 88.5768 23.652C88.9368 24.372 89.0808 25.164 89.1528 25.956C89.2608 26.964 89.3688 27.936 89.2968 28.944C89.2248 30.132 88.9008 31.284 88.5048 32.4C87.1368 36.036 84.7608 38.844 81.5568 40.968C79.7208 42.192 77.7048 43.092 75.5808 43.74C75.5088 43.776 75.4368 43.776 75.3288 43.812C75.5088 44.136 75.7608 44.352 76.0848 44.46C76.6248 44.64 77.2008 44.784 77.7768 44.784C79.0368 44.784 80.2248 45.216 81.3408 45.792C85.5528 47.988 88.2528 51.372 89.2608 56.052C89.4048 56.736 89.4408 57.456 89.5128 58.14C89.5128 58.248 89.5488 58.356 89.5488 58.428C89.5488 59.112 89.5488 59.76 89.5488 60.444C89.5488 60.552 89.5128 60.624 89.5128 60.732C89.4768 61.2 89.4408 61.704 89.4048 62.172C89.0808 64.476 88.2168 66.528 86.7768 68.328C86.0208 69.3 85.3008 70.272 84.2568 70.992C82.1688 72.432 79.9008 73.26 77.3448 73.044C75.7608 72.9 74.1768 72.72 72.5928 72.576C72.4128 72.54 72.2328 72.504 72.0168 72.468C72.0168 72.612 72.0168 72.72 72.0168 72.864C72.0528 73.44 72.0888 74.016 72.1248 74.592C72.1608 74.916 72.1608 75.276 72.1608 75.6C72.1968 76.824 72.2688 78.084 72.1248 79.308C71.8008 81.648 70.9728 83.808 69.6408 85.752C69.1368 86.508 68.5248 87.156 67.7328 87.588C66.9768 87.984 66.1848 88.344 65.4288 88.704C65.2128 88.812 64.9248 88.884 64.6728 88.92C63.9528 89.028 63.2328 89.136 62.5488 89.172C61.4688 89.244 60.4248 89.244 59.3448 89.028C56.4288 88.38 53.9088 87.048 51.7128 85.068C49.3008 82.872 47.6088 80.208 46.4568 77.184C46.2768 76.68 46.0968 76.14 45.8808 75.6C45.8448 75.744 45.8088 75.852 45.8088 75.96C45.7008 76.536 45.4848 77.004 44.9448 77.292C44.9088 77.328 44.8368 77.4 44.8368 77.472C44.8368 78.552 44.5488 79.524 44.1528 80.496C43.1448 82.98 41.4888 84.924 39.3648 86.544C37.1688 88.236 34.6488 89.172 31.8768 89.388C31.4448 89.424 31.0128 89.46 30.5808 89.496C30.5088 89.388 30.2928 89.388 30.0408 89.388ZM75.2568 43.848C75.2208 43.848 75.1848 43.848 75.1488 43.848C73.5648 44.28 71.9448 44.532 70.3248 44.64C68.0568 44.784 65.7888 44.676 63.5568 44.28C61.2168 43.848 58.9128 43.38 56.6088 42.876C54.1968 42.372 51.7488 41.796 49.4088 41.004C48.6168 40.716 47.8248 40.356 47.0688 39.996C46.8528 39.888 46.6368 39.672 46.4928 39.456C46.3128 39.24 46.3848 38.988 46.6368 38.844C46.8528 38.736 47.0688 38.628 47.2848 38.592C48.5448 38.412 49.8408 38.268 51.1008 38.124C52.3608 37.98 53.6568 37.836 54.9168 37.62C57.4728 37.188 59.8128 36.216 62.0808 34.992C63.0528 34.488 63.7368 33.732 64.3128 32.832C64.9608 31.824 65.3568 30.708 65.5728 29.556C65.6448 29.196 65.6808 28.836 65.6448 28.476C65.5728 27.792 65.2128 27.252 64.7088 26.784C63.7008 25.92 62.7648 24.984 62.0088 23.904C61.7208 23.508 61.5408 23.076 61.5768 22.536C61.6128 21.924 61.6848 21.348 61.9008 20.772C62.0808 20.268 62.2968 19.728 62.4768 19.224C62.7288 18.468 62.9448 17.676 62.8728 16.848C62.8008 15.696 62.3328 14.652 61.7208 13.716C60.6408 12.024 59.0208 11.052 57.1488 10.512C55.6008 10.044 54.0168 10.08 52.4328 10.152C50.9208 10.224 49.4808 10.62 48.1488 11.376C47.3568 11.808 46.5288 12.204 45.7368 12.636C45.6648 12.672 45.6288 12.78 45.6288 12.852C45.5928 13.428 45.6288 14.004 45.5568 14.544C45.5208 14.796 45.4488 15.084 45.3048 15.336C45.1608 15.624 44.9448 15.84 44.8008 16.092C44.7288 16.2 44.6928 16.38 44.7288 16.488C44.8368 17.388 44.9808 18.252 45.0528 19.152C45.2688 21.528 45.1248 23.904 44.6928 26.244C44.2608 28.548 43.7928 30.852 43.3248 33.156C42.8568 35.46 42.3168 37.8 41.5248 40.032C41.2368 40.86 40.9128 41.652 40.5168 42.408C40.3728 42.696 40.1208 42.948 39.9048 43.164C39.6528 43.38 39.4008 43.308 39.2568 43.02C39.1488 42.804 39.0408 42.552 39.0048 42.336C38.8248 41.04 38.6808 39.744 38.5368 38.448C38.3928 37.188 38.2488 35.964 38.0328 34.704C37.5648 32.184 36.6288 29.844 35.4048 27.612C34.8648 26.64 34.1088 25.92 33.1728 25.344C32.1648 24.696 31.0128 24.336 29.8248 24.084C28.7808 23.868 27.9168 24.156 27.1968 24.948C26.6568 25.524 26.1528 26.064 25.5768 26.604C25.1088 27.036 24.6408 27.432 24.1368 27.792C23.7408 28.08 23.2728 28.224 22.7688 28.152C22.1928 28.08 21.6168 28.008 21.0768 27.792C20.5008 27.576 19.9608 27.36 19.3848 27.18C18.6288 26.964 17.8728 26.748 17.0448 26.856C16.0368 27 15.1008 27.396 14.2368 27.9C12.6528 28.836 11.7168 30.276 11.1048 31.932C10.3848 33.804 10.4568 35.748 10.5648 37.692C10.6728 39.276 11.2128 40.68 12.0048 42.048C12.3648 42.66 12.6528 43.344 12.9768 43.992C13.0848 44.208 13.0848 44.424 12.9048 44.568C13.2648 44.928 13.6608 45.324 14.0568 45.684C14.0568 45.684 14.0928 45.684 14.1288 45.684C16.0008 45.108 17.9448 44.784 19.8888 44.64C22.1928 44.496 24.4608 44.604 26.7288 45.036C28.8168 45.432 30.9048 45.864 32.9928 46.296C35.5488 46.836 38.1408 47.412 40.6248 48.276C41.3808 48.528 42.1008 48.888 42.8568 49.212C43.1088 49.32 43.3248 49.5 43.5048 49.716C43.8288 50.04 43.7568 50.364 43.3248 50.544C43.1808 50.616 43.0008 50.688 42.8208 50.688C41.5968 50.868 40.3368 51.012 39.1128 51.156C37.8168 51.336 36.5208 51.444 35.2248 51.66C32.6688 52.092 30.3288 53.064 28.0248 54.252C27.0168 54.792 26.2968 55.584 25.6848 56.52C25.0368 57.564 24.6768 58.716 24.4248 59.904C24.2448 60.876 24.4968 61.704 25.2168 62.352C25.5048 62.604 25.7928 62.856 26.0808 63.144C26.7288 63.864 27.4128 64.584 28.0248 65.304C28.4208 65.772 28.5648 66.312 28.4928 66.888C28.4208 67.392 28.3128 67.932 28.1688 68.436C27.9168 69.228 27.6288 70.02 27.3768 70.812C27.0528 71.928 27.1608 73.044 27.6648 74.124C27.7368 74.304 27.8088 74.484 27.8808 74.664C28.2768 75.564 28.8168 76.356 29.6088 76.968C30.8688 77.976 32.2728 78.696 33.8568 78.948C35.0088 79.128 36.1608 79.128 37.3128 79.092C38.1408 79.092 38.9688 78.948 39.7968 78.732C40.7328 78.48 41.5968 78.048 42.4608 77.58C43.1088 77.256 43.7208 76.932 44.3688 76.608C44.4768 76.572 44.6208 76.536 44.7288 76.572C44.8728 76.644 44.9808 76.608 45.0888 76.5C45.1968 76.392 45.3408 76.284 45.4128 76.176C45.5928 75.888 45.7368 75.564 45.8808 75.24C45.9168 75.168 45.8808 75.096 45.8808 75.024C45.3768 73.152 45.0528 71.28 44.9448 69.336C44.8368 67.176 44.9448 65.052 45.3768 62.928C45.8088 60.624 46.2768 58.32 46.7808 56.016C47.2488 53.712 47.7888 51.372 48.5808 49.14C48.8688 48.312 49.2288 47.52 49.5888 46.764C49.7328 46.476 49.9488 46.224 50.2008 46.044C50.4528 45.828 50.7048 45.9 50.8488 46.188C50.9568 46.404 51.0648 46.656 51.1008 46.872C51.2808 48.168 51.4248 49.5 51.5688 50.796C51.7128 52.02 51.8568 53.28 52.0728 54.504C52.5408 57.024 53.4768 59.364 54.7008 61.596C55.2048 62.532 55.9608 63.216 56.8248 63.792C57.8688 64.476 59.0208 64.836 60.2088 65.088C61.2888 65.304 62.1528 65.016 62.9088 64.188C63.5208 63.504 64.2048 62.856 64.8888 62.208C65.2488 61.884 65.6448 61.596 66.0408 61.308C66.4008 61.056 66.7968 60.984 67.2288 61.02C67.8408 61.092 68.4888 61.164 69.0648 61.416C69.5688 61.632 70.1088 61.812 70.6128 61.992C71.3688 62.244 72.1608 62.424 72.9888 62.316C74.1048 62.172 75.1128 61.74 76.0488 61.128C77.4528 60.228 78.2808 58.896 78.8928 57.384C79.6488 55.512 79.5768 53.496 79.4688 51.552C79.3608 49.968 78.8208 48.528 78.0648 47.196C77.7048 46.548 77.3808 45.864 77.0568 45.18C76.9848 45 76.8768 44.928 76.7328 44.856C76.1568 44.748 75.5448 44.496 75.2568 43.848ZM42.4248 35.676C42.3888 35.676 42.3888 35.676 42.3528 35.64C42.2448 35.388 42.2088 35.1 42.0648 34.848C41.6688 34.02 41.3808 33.156 41.1648 32.292C40.9128 31.248 40.8048 30.204 41.0568 29.16C41.2008 28.584 41.3088 28.008 41.3808 27.396C41.4528 26.892 41.4528 26.352 41.5248 25.848C41.6688 24.912 41.7768 23.976 41.8128 23.004C41.8128 22.5 41.8488 22.032 41.8488 21.528C41.8488 20.304 41.9208 19.08 41.8848 17.82C41.8488 16.704 41.5968 15.588 41.2368 14.544C40.4808 12.168 39.2568 10.08 37.6008 8.208C36.1608 6.624 34.5048 5.328 32.5248 4.464C31.3368 3.96 30.1128 3.636 28.7808 3.6C28.2048 3.6 27.5928 3.6 27.0168 3.6C26.1528 3.6 25.3248 3.816 24.5328 4.176C23.6688 4.608 23.0208 5.328 22.4808 6.084C21.1848 7.848 20.4648 9.864 20.3208 12.06C20.2488 13.176 20.2848 14.328 20.3208 15.444C20.3208 15.804 20.3568 16.164 20.4288 16.524C20.5728 17.244 20.7168 17.964 20.8608 18.684C20.9328 19.152 21.0408 19.62 20.9328 20.088C20.8608 20.448 20.6448 20.664 20.2488 20.628C20.1048 20.628 19.9608 20.592 19.8528 20.556C18.0168 19.944 16.1448 19.548 14.2008 19.44C13.2288 19.404 12.2208 19.368 11.2488 19.512C9.44879 19.764 7.97279 20.592 6.64079 21.816C5.92079 22.5 5.34479 23.292 4.80479 24.12C3.54479 26.136 2.96879 28.224 2.86079 30.528C2.78879 31.752 2.93279 32.94 3.18479 34.128C3.50879 35.604 4.12079 36.936 5.20079 38.052C5.95679 38.844 6.74879 39.564 7.57679 40.284C8.00879 40.644 8.44079 41.004 8.90879 41.292C10.1328 42.048 11.5368 42.552 12.6168 43.524C12.3648 42.984 12.0768 42.48 11.7888 41.94C11.0328 40.644 10.5648 39.276 10.4568 37.764C10.3488 36.576 10.3848 35.424 10.4928 34.236C10.6368 32.868 10.9968 31.608 11.7168 30.42C12.1488 29.736 12.6168 29.052 13.2288 28.512C13.9488 27.864 14.8128 27.468 15.7128 27.108C16.2528 26.928 16.7568 26.748 17.3328 26.748C18.1248 26.748 18.8448 26.928 19.6008 27.144C20.5368 27.432 21.4008 27.864 22.3728 28.008C23.0568 28.08 23.6688 28.008 24.2088 27.612C25.2528 26.82 26.1528 25.956 27.0168 24.948C27.6648 24.192 28.5288 23.76 29.5008 23.904C30.7968 24.084 32.0568 24.516 33.2088 25.236C33.9648 25.74 34.6848 26.28 35.1888 27.072C36.0168 28.476 36.6648 29.952 37.2408 31.464C37.8888 33.228 38.2488 35.064 38.4648 36.9C38.5368 37.584 38.6088 38.232 38.6808 38.916C38.7528 39.636 38.8248 40.356 38.8968 41.076C38.9688 41.616 39.0768 42.192 39.2208 42.732C39.3648 43.236 39.6888 43.272 40.0488 42.876C40.0848 42.84 40.0848 42.804 40.1208 42.768C40.3368 42.372 40.5888 41.976 40.7688 41.58C41.3088 40.356 41.7048 39.06 42.0288 37.764C42.3168 36.684 42.5688 35.604 42.8568 34.524C42.8568 34.524 42.8568 34.524 42.8208 34.524C42.6768 34.92 42.5688 35.316 42.4248 35.676ZM47.6448 53.712C47.6808 53.712 47.6808 53.748 47.7168 53.748C47.8248 54.036 47.8968 54.324 48.0408 54.612C48.4008 55.404 48.6888 56.232 48.9048 57.096C49.1568 58.14 49.2648 59.148 49.0128 60.228C48.8328 60.984 48.6528 61.704 48.6168 62.46C48.6168 62.82 48.5448 63.18 48.5088 63.54C48.4368 64.26 48.2928 65.016 48.2568 65.736C48.1848 66.888 48.1848 68.04 48.1488 69.192C48.1488 69.984 48.1128 70.776 48.1488 71.568C48.1848 72.576 48.4008 73.512 48.6888 74.484C49.6608 77.688 51.3888 80.388 53.8728 82.584C54.9168 83.52 56.1048 84.276 57.4008 84.852C58.5528 85.356 59.7768 85.644 61.0368 85.752C61.9728 85.824 62.9088 85.788 63.8088 85.68C65.3208 85.5 66.4728 84.672 67.3728 83.448C68.7408 81.612 69.5328 79.524 69.6408 77.22C69.7128 76.14 69.6768 75.024 69.6408 73.908C69.6408 73.548 69.6048 73.188 69.5328 72.828C69.3888 72.108 69.2448 71.388 69.1008 70.668C69.0288 70.2 68.9208 69.696 69.0288 69.192C69.1008 68.832 69.3168 68.652 69.7128 68.652C69.8568 68.652 69.9648 68.688 70.1088 68.724C71.9088 69.3 73.7448 69.732 75.6168 69.84C76.6608 69.912 77.7408 69.912 78.7848 69.768C80.5488 69.516 82.0248 68.688 83.3208 67.5C84.0768 66.816 84.6168 65.988 85.1928 65.16C86.4888 63.216 87.1008 61.092 87.1728 58.788C87.2088 57.6 87.1008 56.448 86.8488 55.296C86.4888 53.676 85.7688 52.236 84.5808 51.048C83.9688 50.472 83.3568 49.896 82.7448 49.32C82.0968 48.708 81.4128 48.204 80.6208 47.808C79.5048 47.232 78.3528 46.728 77.4168 45.864C77.5608 46.152 77.7048 46.44 77.8488 46.728C78.8568 48.42 79.5768 50.184 79.6128 52.2C79.6488 53.532 79.6488 54.864 79.3968 56.16C79.1088 57.816 78.2808 59.22 77.2008 60.48C76.5168 61.236 75.6528 61.776 74.6808 62.1C74.1048 62.28 73.5648 62.532 72.9528 62.604C72.1608 62.712 71.4048 62.532 70.6488 62.316C69.6408 62.028 68.6688 61.488 67.5888 61.38C66.9768 61.308 66.4008 61.344 65.8608 61.74C64.8168 62.496 63.8808 63.396 63.0168 64.404C62.3328 65.196 61.4688 65.628 60.4248 65.484C59.2008 65.304 58.0128 64.908 56.9328 64.26C56.1408 63.756 55.3848 63.216 54.8808 62.388C54.1248 61.164 53.5128 59.832 53.0088 58.5C52.2528 56.592 51.8208 54.576 51.6048 52.524C51.5328 51.84 51.4608 51.192 51.3888 50.508C51.3168 49.788 51.2448 49.068 51.1728 48.312C51.1008 47.772 50.9928 47.232 50.8488 46.692C50.8128 46.476 50.7048 46.26 50.4888 46.26C50.3088 46.26 50.0928 46.404 49.9848 46.584C49.7328 46.98 49.4808 47.376 49.3008 47.808C48.6528 49.248 48.2568 50.796 47.8248 52.344C47.6088 53.172 47.3928 54.036 47.2128 54.9C47.2128 54.9 47.2128 54.9 47.2488 54.9C47.3928 54.432 47.5008 54.072 47.6448 53.712ZM46.2048 12.276C46.5648 12.06 46.9608 11.88 47.3208 11.664C48.8328 10.764 50.4528 10.116 52.2528 10.044C53.6208 9.972 54.9888 9.972 56.3208 10.188C58.0488 10.476 59.5248 11.304 60.8208 12.456C61.6848 13.212 62.1888 14.22 62.5488 15.264C62.7648 15.876 63.0168 16.488 62.9448 17.136C62.8728 17.784 62.7648 18.432 62.5848 19.044C62.3328 20.016 61.8648 20.88 61.6848 21.888C61.5768 22.644 61.6488 23.292 62.1168 23.904C62.9088 24.912 63.7728 25.848 64.7448 26.676C65.4648 27.288 65.8608 28.08 65.7528 29.016C65.6088 30.348 65.1768 31.608 64.4568 32.796C63.9528 33.588 63.3768 34.344 62.5848 34.848C61.3608 35.604 60.0648 36.18 58.7688 36.684C57.2928 37.26 55.7808 37.692 54.2328 37.872C53.3328 37.98 52.4328 38.088 51.5328 38.196C50.6328 38.304 49.7328 38.376 48.8328 38.484C48.2208 38.556 47.6448 38.664 47.0328 38.808C46.8168 38.844 46.5648 38.916 46.5288 39.204C46.4928 39.456 46.6728 39.636 46.8888 39.78C47.3568 40.068 47.8248 40.32 48.3288 40.536C49.9128 41.184 51.5688 41.616 53.2248 42.048C53.8008 42.192 54.4128 42.336 54.9888 42.48C54.9888 42.48 54.9888 42.48 54.9888 42.444C54.6648 42.336 54.3408 42.192 53.9808 42.084C54.3768 41.94 54.7368 41.832 55.0608 41.652C55.8528 41.292 56.6808 41.04 57.5088 40.824C58.4448 40.608 59.4168 40.5 60.3888 40.716C60.9288 40.824 61.4688 40.968 62.0088 41.04C62.5488 41.112 63.0528 41.112 63.5928 41.184C64.7448 41.364 65.8608 41.472 67.0488 41.508C67.6248 41.508 68.2008 41.544 68.7408 41.58C69.5688 41.616 70.3968 41.652 71.1888 41.652C72.3408 41.616 73.4568 41.436 74.5728 41.112C78.1368 40.104 81.0888 38.124 83.4288 35.244C84.5088 33.912 85.2648 32.436 85.7328 30.78C86.0928 29.52 86.1288 28.224 86.0928 26.928C86.0928 26.532 86.0208 26.172 85.9848 25.776C85.7688 24.444 85.0848 23.4 84.0408 22.536C82.2048 21.06 80.1528 20.268 77.8128 20.052C76.8048 19.98 75.7968 19.98 74.7528 20.016C74.1408 20.016 73.5288 20.088 72.9168 20.196C72.2328 20.304 71.5488 20.484 70.8648 20.592C70.3968 20.664 69.8928 20.736 69.4248 20.628C69.0648 20.52 68.8848 20.232 68.9568 19.872C68.9568 19.764 68.9928 19.692 69.0288 19.62C69.5688 17.892 70.0008 16.164 70.1448 14.328C70.2168 13.212 70.2528 12.096 70.1088 10.98C69.7848 8.82 68.6688 7.092 67.0848 5.688C66.5808 5.256 66.0048 4.896 65.4288 4.5C63.6288 3.24 61.6488 2.7 59.4888 2.556C58.3368 2.484 57.1848 2.556 56.0328 2.772C54.1968 3.096 52.6128 3.888 51.3168 5.22C50.9568 5.616 50.5608 5.976 50.2008 6.408C49.7688 6.876 49.2648 7.344 48.9048 7.884C48.4368 8.568 48.0768 9.288 47.6808 10.008C47.2488 10.764 46.8168 11.592 46.2048 12.276ZM36.0168 47.304C36.0168 47.34 36.0168 47.34 35.9808 47.376C35.7288 47.484 35.4408 47.52 35.1888 47.664C34.2888 48.096 33.3168 48.42 32.3448 48.636C31.5168 48.816 30.7248 48.924 29.8968 48.744C29.0688 48.6 28.2048 48.42 27.3768 48.312C26.6928 48.204 26.0088 48.096 25.2888 48.06C24.2808 47.988 23.2368 47.916 22.1928 47.88C21.2208 47.844 20.2128 47.844 19.2408 47.808C17.9088 47.772 16.5768 47.988 15.3168 48.348C12.7968 49.068 10.5648 50.328 8.58479 52.092C7.00079 53.496 5.74079 55.116 4.87679 57.06C4.37279 58.248 4.04879 59.472 3.97679 60.732C3.94079 61.524 3.97679 62.316 4.01279 63.108C4.04879 63.936 4.30079 64.728 4.69679 65.448C5.09279 66.132 5.66879 66.636 6.24479 67.068C8.22479 68.58 10.4568 69.336 12.9408 69.372C13.9488 69.408 14.9208 69.372 15.9288 69.336C16.6128 69.3 17.2608 69.192 17.9448 69.084C18.7008 68.94 19.4568 68.724 20.2848 68.76C20.8248 68.796 21.2208 69.084 21.0408 69.696C21.0048 69.768 21.0048 69.876 20.9688 69.948C20.4288 71.64 20.0328 73.332 19.8888 75.096C19.7808 76.248 19.7808 77.364 19.9248 78.516C20.2488 80.748 21.4008 82.44 23.0568 83.88C23.5248 84.312 24.1008 84.6 24.6048 84.996C26.3328 86.184 28.2768 86.76 30.3648 86.904C31.6968 87.012 33.0288 86.904 34.3248 86.616C35.8728 86.292 37.2768 85.644 38.4288 84.528C38.9688 84.024 39.4728 83.448 39.9768 82.908C40.4808 82.332 41.0568 81.828 41.4528 81.108C41.7768 80.532 42.0648 79.992 42.3528 79.416C42.7848 78.624 43.2168 77.796 43.8288 77.112C43.3608 77.364 42.8928 77.58 42.4248 77.868C41.0208 78.696 39.5088 79.236 37.8528 79.344C36.5568 79.416 35.2248 79.416 33.9288 79.236C32.1648 78.984 30.6528 78.192 29.3208 77.04C28.4568 76.284 27.9168 75.348 27.5208 74.268C27.2688 73.584 26.9808 72.936 27.0528 72.216C27.1248 71.568 27.2328 70.956 27.4128 70.344C27.6648 69.372 28.1688 68.472 28.3128 67.464C28.4208 66.78 28.3848 66.096 27.9528 65.52C27.6288 65.124 27.3048 64.692 26.9448 64.332C26.2608 63.648 25.5408 63 24.8928 62.28C24.3888 61.74 24.1368 61.02 24.2448 60.3C24.4248 58.968 24.8568 57.672 25.5768 56.52C26.1528 55.584 26.8728 54.792 27.8808 54.252C29.0328 53.64 30.1848 53.1 31.3728 52.632C33.1368 51.948 34.9728 51.516 36.8808 51.3C37.6008 51.228 38.3568 51.156 39.0768 51.048C39.9408 50.94 40.8048 50.868 41.6688 50.76C42.1728 50.688 42.7128 50.58 43.1808 50.436C43.5768 50.328 43.6128 50.076 43.3248 49.752C43.2888 49.716 43.2528 49.644 43.1808 49.608C42.7488 49.356 42.3168 49.068 41.8488 48.888C40.1928 48.168 38.4648 47.736 36.7368 47.304C36.1608 47.16 35.5488 47.016 34.9728 46.872C34.9728 46.872 34.9728 46.872 34.9728 46.908C35.3328 47.052 35.6928 47.16 36.0168 47.304Z" fill="#2E302D"/>
<path d="M75.2567 43.848C75.5447 44.496 76.1567 44.712 76.7687 44.964C76.9487 45.036 77.0207 45.144 77.0927 45.288C77.4167 45.972 77.7407 46.656 78.1007 47.304C78.8927 48.672 79.4327 50.112 79.5047 51.66C79.6127 53.64 79.6847 55.62 78.9287 57.492C78.3167 59.004 77.4527 60.336 76.0847 61.236C75.1487 61.848 74.1407 62.28 73.0247 62.424C72.2327 62.532 71.4407 62.352 70.6487 62.1C70.1087 61.92 69.6047 61.74 69.1007 61.524C68.4887 61.272 67.8767 61.2 67.2647 61.128C66.8327 61.092 66.4007 61.164 66.0767 61.416C65.6807 61.704 65.2847 61.992 64.9247 62.316C64.2407 62.964 63.5927 63.612 62.9447 64.296C62.1887 65.088 61.3247 65.412 60.2447 65.196C59.0567 64.944 57.9047 64.548 56.8607 63.9C55.9967 63.324 55.2407 62.64 54.7367 61.704C53.5487 59.472 52.5767 57.132 52.1087 54.612C51.8927 53.388 51.7487 52.128 51.6047 50.904C51.4247 49.608 51.3167 48.276 51.1367 46.98C51.1007 46.728 50.9927 46.512 50.8847 46.296C50.7407 46.008 50.4527 45.936 50.2367 46.152C49.9847 46.368 49.7687 46.62 49.6247 46.872C49.2647 47.664 48.9047 48.456 48.6167 49.248C47.8607 51.48 47.3207 53.82 46.8167 56.124C46.3487 58.428 45.8807 60.732 45.4127 63.036C45.0167 65.16 44.8727 67.284 44.9807 69.444C45.0887 71.352 45.3767 73.26 45.9167 75.132C45.9167 75.204 45.9527 75.276 45.9167 75.348C45.7727 75.672 45.6287 75.996 45.4487 76.284C45.3767 76.428 45.2327 76.5 45.1247 76.608C45.0167 76.716 44.9087 76.752 44.7647 76.68C44.6927 76.644 44.5127 76.68 44.4047 76.716C43.7567 77.04 43.1087 77.328 42.4967 77.688C41.6327 78.156 40.8047 78.624 39.8327 78.84C39.0047 79.056 38.2127 79.164 37.3487 79.2C36.1967 79.236 35.0447 79.236 33.8927 79.056C32.2727 78.804 30.9047 78.084 29.6447 77.076C28.8887 76.464 28.3127 75.672 27.9167 74.772C27.8447 74.592 27.7727 74.412 27.7007 74.232C27.1967 73.152 27.0887 72.072 27.4127 70.92C27.6287 70.128 27.9527 69.336 28.2047 68.544C28.3487 68.04 28.4567 67.536 28.5287 66.996C28.6367 66.42 28.4567 65.844 28.0607 65.412C27.4127 64.656 26.7647 63.936 26.1167 63.252C25.8647 62.964 25.5407 62.712 25.2527 62.46C24.5327 61.776 24.2807 60.948 24.4607 60.012C24.6767 58.824 25.0727 57.672 25.7207 56.628C26.3327 55.692 27.0527 54.9 28.0607 54.36C30.3287 53.136 32.7047 52.2 35.2607 51.768C36.5567 51.552 37.8527 51.444 39.1487 51.264C40.3727 51.12 41.6327 50.94 42.8567 50.796C43.0367 50.76 43.1807 50.688 43.3607 50.652C43.7927 50.472 43.8647 50.148 43.5407 49.824C43.3607 49.644 43.1447 49.428 42.8927 49.32C42.1727 48.996 41.4167 48.636 40.6607 48.384C38.1767 47.52 35.6207 46.944 33.0287 46.404C30.9407 45.972 28.8527 45.54 26.7647 45.144C24.4967 44.712 22.2287 44.604 19.9247 44.748C17.9447 44.856 16.0367 45.216 14.1647 45.792C14.1287 45.792 14.0567 45.828 14.0927 45.792C13.6967 45.396 13.3367 45.036 12.9407 44.676C13.1567 44.532 13.1207 44.316 13.0127 44.1C12.6887 43.452 12.4007 42.804 12.0407 42.156C11.2487 40.788 10.7087 39.348 10.6007 37.8C10.4927 35.856 10.4207 33.912 11.1407 32.04C11.7887 30.384 12.7247 28.944 14.2727 28.008C15.1367 27.504 16.0727 27.108 17.0807 26.964C17.8727 26.856 18.6647 27.036 19.4207 27.288C19.9967 27.468 20.5727 27.684 21.1127 27.9C21.6527 28.116 22.2287 28.188 22.8047 28.26C23.3087 28.332 23.7767 28.224 24.1727 27.9C24.6767 27.54 25.1807 27.144 25.6127 26.712C26.1887 26.172 26.6927 25.632 27.2327 25.056C27.9527 24.264 28.8167 23.976 29.8607 24.192C31.0487 24.444 32.1647 24.804 33.2087 25.452C34.1087 26.028 34.9007 26.748 35.4407 27.72C36.6647 29.952 37.6007 32.292 38.0687 34.812C38.2847 36.036 38.3927 37.296 38.5727 38.556C38.7167 39.852 38.8607 41.148 39.0407 42.444C39.0767 42.696 39.1847 42.912 39.2927 43.128C39.4367 43.416 39.6887 43.488 39.9407 43.272C40.1927 43.056 40.4447 42.804 40.5527 42.516C40.9127 41.724 41.2727 40.932 41.5607 40.14C42.3167 37.908 42.8567 35.568 43.3607 33.264C43.8287 30.96 44.2967 28.656 44.7287 26.352C45.1607 24.012 45.3047 21.636 45.0887 19.26C45.0167 18.36 44.8727 17.496 44.7647 16.596C44.7647 16.452 44.8007 16.308 44.8367 16.2C44.9807 15.948 45.1967 15.696 45.3407 15.444C45.4487 15.192 45.5567 14.94 45.5927 14.652C45.6287 14.076 45.6287 13.5 45.6647 12.96C45.6647 12.888 45.7367 12.78 45.7727 12.744C46.5647 12.312 47.3927 11.916 48.1847 11.484C49.5167 10.764 50.9567 10.332 52.4687 10.26C54.0527 10.188 55.6367 10.152 57.1847 10.62C59.0567 11.16 60.6767 12.132 61.7567 13.824C62.3687 14.76 62.8007 15.804 62.9087 16.956C62.9807 17.784 62.7647 18.54 62.5127 19.332C62.3327 19.872 62.1527 20.376 61.9367 20.88C61.7207 21.456 61.6487 22.032 61.6127 22.644C61.5767 23.148 61.7567 23.58 62.0447 24.012C62.8367 25.092 63.7727 26.028 64.7447 26.892C65.2847 27.36 65.6087 27.9 65.6807 28.584C65.7167 28.944 65.6807 29.304 65.6087 29.664C65.3927 30.816 64.9967 31.932 64.3487 32.94C63.7727 33.84 63.0887 34.596 62.1167 35.1C59.8487 36.324 57.4727 37.296 54.9527 37.728C53.6927 37.944 52.3967 38.088 51.1367 38.232C49.8767 38.376 48.5807 38.52 47.3207 38.7C47.1047 38.736 46.8887 38.844 46.6727 38.952C46.4207 39.096 46.3487 39.312 46.5287 39.564C46.7087 39.78 46.8887 39.996 47.1047 40.104C47.8607 40.464 48.6527 40.86 49.4447 41.112C51.7847 41.94 54.1967 42.48 56.6447 42.984C58.9487 43.452 61.2887 43.92 63.5927 44.388C65.8247 44.82 68.0927 44.928 70.3607 44.748C71.9807 44.64 73.6007 44.388 75.1847 43.956C75.1847 43.848 75.1847 43.848 75.2567 43.848Z" fill="white"/>
<path d="M42.4248 35.676C42.5688 35.316 42.6768 34.956 42.8208 34.56C42.8208 34.56 42.8208 34.56 42.8568 34.56C42.5688 35.64 42.3168 36.72 42.0288 37.8C41.6688 39.096 41.3088 40.392 40.7688 41.616C40.5888 42.048 40.3368 42.408 40.1208 42.804C40.0848 42.84 40.0848 42.876 40.0488 42.912C39.6888 43.308 39.4008 43.272 39.2208 42.768C39.0768 42.228 38.9688 41.688 38.8968 41.112C38.7888 40.392 38.7528 39.672 38.6808 38.952C38.6088 38.268 38.5728 37.62 38.4648 36.936C38.2488 35.064 37.8888 33.264 37.2408 31.5C36.7008 29.988 36.0528 28.476 35.1888 27.108C34.7208 26.316 34.0008 25.776 33.2088 25.272C32.0568 24.552 30.7968 24.12 29.5008 23.94C28.5288 23.796 27.7008 24.192 27.0168 24.984C26.1888 25.956 25.2528 26.856 24.2088 27.648C23.6688 28.044 23.0568 28.152 22.3728 28.044C21.4008 27.9 20.5008 27.504 19.6008 27.18C18.8808 26.928 18.1248 26.784 17.3328 26.784C16.7568 26.784 16.2168 26.964 15.7128 27.144C14.8128 27.468 13.9488 27.9 13.2288 28.548C12.6168 29.088 12.1488 29.772 11.7168 30.456C10.9968 31.608 10.6008 32.904 10.4928 34.272C10.3848 35.46 10.3488 36.612 10.4568 37.8C10.5648 39.276 11.0328 40.68 11.7888 41.976C12.0768 42.48 12.3648 43.02 12.6168 43.56C11.5368 42.588 10.1328 42.084 8.90882 41.328C8.44082 41.04 7.97282 40.716 7.57682 40.32C6.78482 39.6 5.95682 38.844 5.20082 38.088C4.15682 36.972 3.50882 35.64 3.18482 34.164C2.93282 32.976 2.78882 31.788 2.86082 30.564C2.96882 28.296 3.54482 26.172 4.84082 24.264C5.41682 23.436 5.95682 22.608 6.67682 21.96C8.00882 20.736 9.48482 19.908 11.2848 19.656C12.2568 19.512 13.2288 19.548 14.2368 19.584C16.1808 19.692 18.0528 20.124 19.8888 20.7C20.0328 20.736 20.1768 20.772 20.2848 20.772C20.6808 20.772 20.8968 20.592 20.9688 20.232C21.0768 19.764 20.9688 19.296 20.8968 18.828C20.7528 18.108 20.6088 17.388 20.4648 16.668C20.3928 16.308 20.3568 15.948 20.3568 15.588C20.3568 14.472 20.2848 13.32 20.3568 12.204C20.4648 10.008 21.2208 7.992 22.5168 6.228C23.0568 5.472 23.7048 4.752 24.5688 4.32C25.3608 3.96 26.1888 3.744 27.0528 3.744C27.6288 3.744 28.2408 3.744 28.8168 3.744C30.1128 3.78 31.3728 4.104 32.5608 4.608C34.5408 5.472 36.1968 6.732 37.6368 8.352C39.2928 10.224 40.5168 12.312 41.2728 14.688C41.5968 15.768 41.8848 16.848 41.9208 17.964C41.9568 19.188 41.9208 20.412 41.8848 21.672C41.8848 22.176 41.8488 22.644 41.8488 23.148C41.8128 24.084 41.7408 25.056 41.5608 25.992C41.4888 26.496 41.4888 27 41.4168 27.54C41.3448 28.116 41.2008 28.728 41.0928 29.304C40.8408 30.348 40.9488 31.392 41.2008 32.436C41.4168 33.336 41.7048 34.164 42.1008 34.992C42.2088 35.244 42.2808 35.496 42.3888 35.784C42.3888 35.64 42.3888 35.676 42.4248 35.676Z" fill="#8ABB63"/>
<path d="M47.645 53.712C47.537 54.072 47.393 54.432 47.285 54.792C47.285 54.792 47.285 54.792 47.249 54.792C47.465 53.928 47.645 53.1 47.861 52.236C48.257 50.688 48.689 49.176 49.337 47.7C49.517 47.268 49.769 46.872 50.021 46.476C50.129 46.332 50.345 46.188 50.525 46.152C50.741 46.152 50.849 46.404 50.885 46.584C50.993 47.124 51.137 47.664 51.209 48.204C51.317 48.924 51.353 49.644 51.425 50.4C51.497 51.084 51.533 51.732 51.641 52.416C51.857 54.468 52.289 56.448 53.045 58.392C53.585 59.724 54.161 61.056 54.917 62.28C55.421 63.072 56.177 63.648 56.969 64.152C58.049 64.8 59.237 65.196 60.461 65.376C61.505 65.52 62.369 65.088 63.053 64.296C63.917 63.324 64.817 62.388 65.897 61.632C66.437 61.236 67.013 61.236 67.625 61.272C68.705 61.38 69.641 61.884 70.685 62.208C71.441 62.424 72.233 62.604 72.989 62.496C73.565 62.424 74.141 62.172 74.717 61.992C75.689 61.668 76.553 61.128 77.237 60.372C78.353 59.148 79.145 57.708 79.433 56.052C79.685 54.756 79.685 53.424 79.649 52.092C79.577 50.076 78.893 48.312 77.885 46.62C77.705 46.332 77.597 46.08 77.453 45.756C78.389 46.62 79.541 47.124 80.657 47.7C81.449 48.096 82.133 48.6 82.781 49.212C83.393 49.788 84.005 50.364 84.617 50.94C85.805 52.128 86.525 53.568 86.885 55.188C87.137 56.34 87.245 57.492 87.209 58.68C87.101 60.984 86.525 63.108 85.229 65.052C84.653 65.88 84.113 66.708 83.357 67.392C82.061 68.58 80.585 69.408 78.821 69.66C77.777 69.804 76.697 69.804 75.653 69.732C73.745 69.624 71.945 69.192 70.145 68.616C70.037 68.58 69.893 68.544 69.749 68.544C69.389 68.544 69.173 68.724 69.065 69.084C68.957 69.588 69.065 70.056 69.137 70.56C69.281 71.28 69.425 72 69.569 72.72C69.641 73.08 69.677 73.44 69.677 73.8C69.677 74.916 69.749 75.996 69.677 77.112C69.533 79.416 68.777 81.504 67.409 83.34C66.509 84.528 65.357 85.392 63.845 85.572C62.909 85.68 62.009 85.716 61.073 85.644C59.813 85.572 58.589 85.248 57.437 84.744C56.141 84.168 54.953 83.412 53.909 82.476C51.425 80.28 49.697 77.544 48.725 74.376C48.437 73.44 48.221 72.468 48.185 71.46C48.149 70.668 48.149 69.876 48.185 69.084C48.221 67.932 48.221 66.78 48.293 65.628C48.329 64.908 48.473 64.152 48.545 63.432C48.581 63.072 48.617 62.712 48.653 62.352C48.689 61.596 48.833 60.84 49.049 60.12C49.301 59.076 49.193 58.032 48.941 56.988C48.725 56.124 48.437 55.296 48.077 54.504C47.933 54.216 47.861 53.928 47.753 53.64C47.681 53.712 47.645 53.712 47.645 53.712Z" fill="#8ABB63"/>
<path d="M46.2046 12.276C46.8526 11.592 47.2486 10.764 47.6806 9.972C48.0766 9.252 48.4366 8.532 48.9046 7.848C49.2646 7.308 49.7686 6.84 50.2006 6.372C50.5606 5.976 50.9566 5.58 51.3166 5.184C52.6126 3.852 54.1966 3.096 56.0326 2.736C57.1846 2.52 58.3366 2.448 59.4886 2.52C61.6486 2.664 63.6286 3.204 65.4286 4.464C65.9686 4.86 66.5806 5.184 67.0846 5.652C68.7046 7.056 69.8206 8.784 70.1086 10.944C70.2526 12.06 70.2526 13.176 70.1446 14.292C70.0006 16.092 69.5686 17.856 69.0286 19.584C68.9926 19.656 68.9566 19.764 68.9566 19.836C68.8846 20.196 69.0646 20.484 69.4246 20.592C69.8926 20.736 70.3966 20.664 70.8646 20.556C71.5486 20.412 72.2326 20.268 72.9166 20.16C73.5286 20.052 74.1406 20.016 74.7526 19.98C75.7606 19.98 76.8046 19.944 77.8126 20.016C80.1166 20.232 82.2046 21.024 84.0406 22.5C85.0846 23.364 85.7686 24.372 85.9846 25.74C86.0566 26.1 86.0926 26.496 86.0926 26.892C86.1286 28.188 86.0926 29.484 85.7326 30.744C85.2646 32.4 84.5086 33.876 83.4286 35.208C81.1246 38.088 78.1366 40.032 74.5726 41.076C73.4566 41.4 72.3406 41.58 71.1886 41.616C70.3606 41.652 69.5326 41.58 68.7406 41.544C68.1646 41.544 67.5886 41.508 67.0486 41.472C65.8966 41.472 64.7446 41.328 63.5926 41.148C63.0886 41.076 62.5486 41.076 62.0086 41.004C61.4686 40.932 60.9286 40.788 60.3886 40.68C59.4166 40.464 58.4806 40.572 57.5086 40.788C56.6806 41.004 55.8526 41.256 55.0606 41.616C54.7366 41.76 54.3766 41.868 53.9806 42.048C54.3406 42.192 54.6646 42.3 54.9886 42.408C54.9886 42.408 54.9886 42.408 54.9886 42.444C54.4126 42.3 53.8006 42.156 53.2246 42.012C51.5686 41.58 49.9126 41.148 48.3286 40.5C47.8246 40.284 47.3566 39.996 46.8886 39.744C46.6726 39.636 46.4926 39.456 46.5286 39.168C46.5646 38.916 46.8166 38.844 47.0326 38.772C47.6086 38.664 48.2206 38.52 48.8326 38.448C49.7326 38.34 50.6326 38.268 51.5326 38.16C52.4326 38.052 53.3326 37.944 54.2326 37.836C55.7806 37.62 57.2926 37.188 58.7686 36.648C60.1006 36.144 61.3966 35.568 62.5846 34.812C63.4126 34.308 63.9886 33.588 64.4566 32.76C65.1766 31.608 65.6086 30.348 65.7526 28.98C65.8606 28.08 65.4646 27.288 64.7446 26.64C63.7726 25.812 62.9086 24.876 62.1166 23.868C61.6486 23.256 61.5766 22.572 61.6846 21.852C61.8286 20.844 62.3326 19.98 62.5846 19.008C62.7646 18.396 62.8726 17.748 62.9446 17.1C63.0166 16.452 62.7646 15.84 62.5486 15.228C62.1526 14.148 61.6486 13.176 60.8206 12.42C59.5246 11.268 58.0486 10.476 56.3206 10.152C54.9526 9.9 53.5846 9.936 52.2526 10.008C50.4526 10.08 48.8326 10.728 47.3206 11.628C46.9246 11.88 46.5646 12.06 46.2046 12.276Z" fill="#8ABB63"/>
<path d="M36.017 47.304C35.693 47.196 35.333 47.052 35.009 46.944C35.009 46.944 35.009 46.944 35.009 46.908C35.585 47.052 36.197 47.196 36.773 47.34C38.501 47.772 40.229 48.24 41.885 48.924C42.353 49.14 42.785 49.392 43.217 49.644C43.253 49.68 43.325 49.716 43.361 49.788C43.649 50.112 43.613 50.364 43.217 50.472C42.713 50.616 42.209 50.724 41.705 50.796C40.841 50.904 39.977 50.976 39.113 51.084C38.393 51.156 37.637 51.228 36.917 51.336C35.045 51.552 33.209 51.984 31.409 52.668C30.221 53.136 29.033 53.676 27.917 54.288C26.909 54.828 26.189 55.62 25.613 56.556C24.893 57.708 24.461 59.004 24.281 60.336C24.173 61.056 24.425 61.776 24.929 62.316C25.613 63 26.333 63.648 26.981 64.368C27.341 64.728 27.665 65.16 27.989 65.556C28.457 66.132 28.457 66.78 28.349 67.5C28.205 68.508 27.701 69.408 27.449 70.38C27.269 70.992 27.161 71.64 27.089 72.252C27.017 72.972 27.305 73.656 27.557 74.304C27.953 75.384 28.493 76.32 29.357 77.076C30.689 78.228 32.201 79.02 33.965 79.272C35.261 79.452 36.593 79.452 37.889 79.38C39.509 79.272 41.057 78.768 42.461 77.904C42.929 77.652 43.397 77.4 43.865 77.148C43.217 77.832 42.821 78.624 42.389 79.452C42.101 80.028 41.777 80.568 41.489 81.144C41.129 81.828 40.517 82.368 40.013 82.944C39.509 83.484 39.005 84.06 38.465 84.564C37.313 85.644 35.909 86.328 34.361 86.652C33.065 86.94 31.733 87.012 30.401 86.94C28.313 86.796 26.369 86.22 24.641 85.032C24.101 84.672 23.561 84.348 23.093 83.916C21.437 82.476 20.285 80.784 19.961 78.552C19.781 77.4 19.817 76.284 19.925 75.132C20.069 73.368 20.465 71.676 21.005 69.984C21.041 69.912 21.041 69.804 21.077 69.732C21.257 69.12 20.861 68.832 20.321 68.796C19.529 68.76 18.773 68.976 17.981 69.12C17.333 69.228 16.649 69.336 15.965 69.372C14.993 69.444 13.985 69.444 12.977 69.408C10.493 69.336 8.26096 68.58 6.28096 67.104C5.66896 66.636 5.09296 66.132 4.73296 65.484C4.30096 64.764 4.08496 63.972 4.04896 63.144C4.01296 62.352 3.97696 61.56 4.01296 60.768C4.08496 59.508 4.40896 58.284 4.91296 57.096C5.77696 55.152 7.03696 53.532 8.62096 52.128C10.601 50.4 12.833 49.104 15.353 48.384C16.649 48.024 17.945 47.808 19.277 47.844C20.249 47.88 21.257 47.88 22.229 47.916C23.273 47.952 24.281 48.024 25.325 48.096C26.009 48.168 26.729 48.24 27.413 48.348C28.241 48.492 29.105 48.636 29.933 48.78C30.761 48.924 31.589 48.816 32.381 48.672C33.353 48.456 34.325 48.132 35.225 47.7C35.477 47.592 35.765 47.52 36.017 47.412C36.017 47.34 36.017 47.304 36.017 47.304Z" fill="#8ABB63"/>
</g>
<defs>
<clipPath id="clip0_181_810">
<rect width="90" height="90" fill="white" transform="translate(0.34082)"/>
</clipPath>
</defs>
</svg>
