<svg width="54" height="53" viewBox="0 0 54 53" fill="none" xmlns="http://www.w3.org/2000/svg">
<g clip-path="url(#clip0_181_870)">
<path d="M17.8309 52.6397C17.7037 52.6397 17.5765 52.6185 17.4493 52.6185C15.7109 52.5973 14.1421 52.0461 12.7641 50.9861C12.4673 50.7529 12.1705 50.5197 11.8949 50.2653C11.2165 49.6717 10.7713 48.9085 10.4321 48.0817C10.0293 47.1489 9.94452 46.1737 10.0505 45.1773C10.1353 44.3929 10.1989 43.6085 10.2837 42.8241C10.3049 42.6545 10.3261 42.5061 10.3685 42.3153C10.2837 42.3153 10.2201 42.3153 10.1353 42.3153C9.73252 42.3365 9.32972 42.3789 8.92692 42.4001C8.20612 42.4213 7.46412 42.4637 6.74332 42.4213C5.11092 42.3153 3.66932 41.7429 2.35492 40.7677C1.90972 40.4497 1.57052 40.0257 1.33732 39.5169C1.18892 39.2201 1.04052 38.9233 0.892121 38.6265C0.701321 38.2237 0.658922 37.7997 0.595321 37.3757C0.552922 36.9729 0.510521 36.5701 0.510521 36.1673C0.468121 35.1285 0.743721 34.1321 1.14652 33.1781C2.03692 31.0793 3.52092 29.5105 5.42892 28.3233C6.21332 27.8357 6.70092 27.6237 8.24852 27.0301C8.16372 26.9453 8.10012 26.8817 8.03652 26.8181C7.90932 26.7333 7.78212 26.6485 7.65492 26.5425C7.44292 26.3941 7.23092 26.3093 6.97652 26.2669C6.17092 26.1821 5.45012 25.8641 4.77172 25.4613C2.54572 24.1257 1.10412 22.2177 0.574121 19.6737C0.362121 18.7197 0.362121 17.7445 0.425721 16.7693C0.425721 15.6669 0.701321 14.6281 1.21012 13.6317C1.54932 12.9533 2.01572 12.3597 2.48212 11.7873C3.47852 10.5789 4.79292 9.92168 6.31932 9.68848C6.91292 9.58248 7.50652 9.64608 8.10012 9.70968C8.69372 9.77328 9.30852 9.83688 9.90212 9.90048C10.1353 9.92168 10.3685 9.96408 10.6229 9.98528C10.6229 9.87928 10.6229 9.77328 10.6229 9.66728C10.6017 9.39168 10.5805 9.09488 10.5593 8.81928C10.5381 8.05608 10.4957 7.29288 10.5381 6.55088C10.5805 5.36368 10.9197 4.26128 11.4497 3.20128C11.7041 2.69248 12.0009 2.20488 12.3825 1.78088C12.6369 1.48408 12.9337 1.25088 13.2729 1.06008C13.6121 0.890477 13.9513 0.720877 14.2905 0.551277C14.6721 0.360477 15.0961 0.296877 15.5201 0.254477C15.9865 0.212077 16.4741 0.169677 16.9405 0.169677C17.8097 0.148477 18.6577 0.381677 19.4633 0.678477C21.6681 1.52648 23.3429 3.03168 24.5937 5.02448C25.4417 6.40248 26.0141 7.88648 26.3321 9.49768C26.3533 9.45528 26.3745 9.41288 26.3745 9.39168C26.4169 9.28568 26.4381 9.17968 26.5017 9.09488C26.6713 8.88288 26.6925 8.62848 26.6713 8.37408C26.6501 8.07728 26.6713 7.78048 26.6501 7.48368C26.5229 5.80888 27.2861 4.43088 28.2825 3.20128C29.3001 1.97168 30.5509 1.03888 32.0561 0.508877C33.0949 0.127277 34.1761 7.71731e-05 35.2785 0.0212772C36.2537 0.0212772 37.1865 0.106077 38.1193 0.402877C39.2005 0.742077 40.0909 1.35688 40.9813 2.03528C42.1049 2.92568 42.7621 4.07048 43.1225 5.42728C43.2921 6.08448 43.3133 6.74168 43.2285 7.42008C43.1437 8.20448 43.0801 9.01008 42.9953 9.79448C42.9741 9.96408 42.9529 10.1337 42.9105 10.3457C43.0589 10.3457 43.1861 10.3245 43.3133 10.3245C43.7585 10.3033 44.2249 10.2609 44.6701 10.2609C45.3485 10.2609 46.0269 10.2185 46.7053 10.2821C48.3589 10.4517 49.8429 11.0453 51.1361 12.1053C51.4541 12.3597 51.6873 12.6777 51.8569 13.0381C52.0053 13.3349 52.1537 13.6317 52.3021 13.9285C52.5141 14.3525 52.5989 14.8189 52.6413 15.2853C52.7049 15.8789 52.7685 16.4513 52.7261 17.0449C52.6837 17.7445 52.4929 18.4229 52.2597 19.0801C51.4541 21.2213 50.0549 22.8749 48.1681 24.1257C47.0869 24.8465 45.8997 25.3765 44.6489 25.7581C44.6065 25.7793 44.5641 25.7793 44.5005 25.8005C44.6065 25.9913 44.7549 26.1185 44.9457 26.1821C45.2637 26.2881 45.6029 26.3729 45.9421 26.3729C46.6841 26.3729 47.3837 26.6273 48.0409 26.9665C50.5213 28.2597 52.1113 30.2525 52.7049 33.0085C52.7897 33.4113 52.8109 33.8353 52.8533 34.2381C52.8533 34.3017 52.8745 34.3653 52.8745 34.4077C52.8745 34.8105 52.8745 35.1921 52.8745 35.5949C52.8745 35.6585 52.8533 35.7009 52.8533 35.7645C52.8321 36.0401 52.8109 36.3369 52.7897 36.6125C52.5989 37.9693 52.0901 39.1777 51.2421 40.2377C50.7969 40.8101 50.3729 41.3825 49.7581 41.8065C48.5285 42.6545 47.1929 43.1421 45.6877 43.0149C44.7549 42.9301 43.8221 42.8241 42.8893 42.7393C42.7833 42.7181 42.6773 42.6969 42.5501 42.6757C42.5501 42.7605 42.5501 42.8241 42.5501 42.9089C42.5713 43.2481 42.5925 43.5873 42.6137 43.9265C42.6349 44.1173 42.6349 44.3293 42.6349 44.5201C42.6561 45.2409 42.6985 45.9829 42.6137 46.7037C42.4229 48.0817 41.9353 49.3537 41.1509 50.4985C40.8541 50.9437 40.4937 51.3253 40.0273 51.5797C39.5821 51.8129 39.1157 52.0249 38.6705 52.2369C38.5433 52.3005 38.3737 52.3429 38.2253 52.3641C37.8013 52.4277 37.3773 52.4913 36.9745 52.5125C36.3385 52.5549 35.7237 52.5549 35.0877 52.4277C33.3705 52.0461 31.8865 51.2617 30.5933 50.0957C29.1729 48.8025 28.1765 47.2337 27.4981 45.4529C27.3921 45.1561 27.2861 44.8381 27.1589 44.5201C27.1377 44.6049 27.1165 44.6685 27.1165 44.7321C27.0529 45.0713 26.9257 45.3469 26.6077 45.5165C26.5865 45.5377 26.5441 45.5801 26.5441 45.6225C26.5441 46.2585 26.3745 46.8309 26.1413 47.4033C25.5477 48.8661 24.5725 50.0109 23.3217 50.9649C22.0285 51.9613 20.5445 52.5125 18.9121 52.6397C18.6577 52.6609 18.4033 52.6821 18.1489 52.7033C18.1065 52.6397 17.9793 52.6397 17.8309 52.6397ZM44.4581 25.8217C44.4369 25.8217 44.4157 25.8217 44.3945 25.8217C43.4617 26.0761 42.5077 26.2245 41.5537 26.2881C40.2181 26.3729 38.8825 26.3093 37.5681 26.0761C36.1901 25.8217 34.8333 25.5461 33.4765 25.2493C32.0561 24.9525 30.6145 24.6133 29.2365 24.1469C28.7701 23.9773 28.3037 23.7653 27.8585 23.5533C27.7313 23.4897 27.6041 23.3625 27.5193 23.2353C27.4133 23.1081 27.4557 22.9597 27.6041 22.8749C27.7313 22.8113 27.8585 22.7477 27.9857 22.7265C28.7277 22.6205 29.4909 22.5357 30.2329 22.4509C30.9749 22.3661 31.7381 22.2813 32.4801 22.1541C33.9853 21.8997 35.3633 21.3273 36.6989 20.6065C37.2713 20.3097 37.6741 19.8645 38.0133 19.3345C38.3949 18.7409 38.6281 18.0837 38.7553 17.4053C38.7977 17.1933 38.8189 16.9813 38.7977 16.7693C38.7553 16.3665 38.5433 16.0485 38.2465 15.7729C37.6529 15.2641 37.1017 14.7129 36.6565 14.0769C36.4869 13.8437 36.3809 13.5893 36.4021 13.2713C36.4233 12.9109 36.4657 12.5717 36.5929 12.2325C36.6989 11.9357 36.8261 11.6177 36.9321 11.3209C37.0805 10.8757 37.2077 10.4093 37.1653 9.92168C37.1229 9.24328 36.8473 8.62848 36.4869 8.07728C35.8509 7.08088 34.8969 6.50848 33.7945 6.19048C32.8829 5.91488 31.9501 5.93608 31.0173 5.97848C30.1269 6.02088 29.2789 6.25408 28.4945 6.69928C28.0281 6.95368 27.5405 7.18688 27.0741 7.44128C27.0317 7.46248 27.0105 7.52608 27.0105 7.56848C26.9893 7.90768 27.0105 8.24688 26.9681 8.56488C26.9469 8.71328 26.9045 8.88288 26.8197 9.03128C26.7349 9.20088 26.6077 9.32808 26.5229 9.47648C26.4805 9.54008 26.4593 9.64608 26.4805 9.70968C26.5441 10.2397 26.6289 10.7485 26.6713 11.2785C26.7985 12.6777 26.7137 14.0769 26.4593 15.4549C26.2049 16.8117 25.9293 18.1685 25.6537 19.5253C25.3781 20.8821 25.0601 22.2601 24.5937 23.5745C24.4241 24.0621 24.2333 24.5285 24.0001 24.9737C23.9153 25.1433 23.7669 25.2917 23.6397 25.4189C23.4913 25.5461 23.3429 25.5037 23.2581 25.3341C23.1945 25.2069 23.1309 25.0585 23.1097 24.9313C23.0037 24.1681 22.9189 23.4049 22.8341 22.6417C22.7493 21.8997 22.6645 21.1789 22.5373 20.4369C22.2617 18.9529 21.7105 17.5749 20.9897 16.2605C20.6717 15.6881 20.2265 15.2641 19.6753 14.9249C19.0817 14.5433 18.4033 14.3313 17.7037 14.1829C17.0889 14.0557 16.5801 14.2253 16.1561 14.6917C15.8381 15.0309 15.5413 15.3489 15.2021 15.6669C14.9265 15.9213 14.6509 16.1545 14.3541 16.3665C14.1209 16.5361 13.8453 16.6209 13.5485 16.5785C13.2093 16.5361 12.8701 16.4937 12.5521 16.3665C12.2129 16.2393 11.8949 16.1121 11.5557 16.0061C11.1105 15.8789 10.6653 15.7517 10.1777 15.8153C9.58412 15.9001 9.03292 16.1333 8.52412 16.4301C7.59132 16.9813 7.04012 17.8293 6.67972 18.8045C6.25572 19.9069 6.29812 21.0517 6.36172 22.1965C6.42532 23.1293 6.74332 23.9561 7.20972 24.7617C7.42172 25.1221 7.59132 25.5249 7.78212 25.9065C7.84572 26.0337 7.84572 26.1609 7.73972 26.2457C7.95172 26.4577 8.18492 26.6909 8.41812 26.9029C8.41812 26.9029 8.43932 26.9029 8.46052 26.9029C9.56292 26.5637 10.7077 26.3729 11.8525 26.2881C13.2093 26.2033 14.5449 26.2669 15.8805 26.5213C17.1101 26.7545 18.3397 27.0089 19.5693 27.2633C21.0745 27.5813 22.6009 27.9205 24.0637 28.4293C24.5089 28.5777 24.9329 28.7897 25.3781 28.9805C25.5265 29.0441 25.6537 29.1501 25.7597 29.2773C25.9505 29.4681 25.9081 29.6589 25.6537 29.7649C25.5689 29.8073 25.4629 29.8497 25.3569 29.8497C24.6361 29.9557 23.8941 30.0405 23.1733 30.1253C22.4101 30.2313 21.6469 30.2949 20.8837 30.4221C19.3785 30.6765 18.0005 31.2489 16.6437 31.9485C16.0501 32.2665 15.6261 32.7329 15.2657 33.2841C14.8841 33.8989 14.6721 34.5773 14.5237 35.2769C14.4177 35.8493 14.5661 36.3369 14.9901 36.7185C15.1597 36.8669 15.3293 37.0153 15.4989 37.1849C15.8805 37.6089 16.2833 38.0329 16.6437 38.4569C16.8769 38.7325 16.9617 39.0505 16.9193 39.3897C16.8769 39.6865 16.8133 40.0045 16.7285 40.3013C16.5801 40.7677 16.4105 41.2341 16.2621 41.7005C16.0713 42.3577 16.1349 43.0149 16.4317 43.6509C16.4741 43.7569 16.5165 43.8629 16.5589 43.9689C16.7921 44.4989 17.1101 44.9653 17.5765 45.3257C18.3185 45.9193 19.1453 46.3433 20.0781 46.4917C20.7565 46.5977 21.4349 46.5977 22.1133 46.5765C22.6009 46.5765 23.0885 46.4917 23.5761 46.3645C24.1273 46.2161 24.6361 45.9617 25.1449 45.6861C25.5265 45.4953 25.8869 45.3045 26.2685 45.1137C26.3321 45.0925 26.4169 45.0713 26.4805 45.0925C26.5653 45.1349 26.6289 45.1137 26.6925 45.0501C26.7561 44.9865 26.8409 44.9229 26.8833 44.8593C26.9893 44.6897 27.0741 44.4989 27.1589 44.3081C27.1801 44.2657 27.1589 44.2233 27.1589 44.1809C26.8621 43.0785 26.6713 41.9761 26.6077 40.8313C26.5441 39.5593 26.6077 38.3085 26.8621 37.0577C27.1165 35.7009 27.3921 34.3441 27.6889 32.9873C27.9645 31.6305 28.2825 30.2525 28.7489 28.9381C28.9185 28.4505 29.1305 27.9841 29.3425 27.5389C29.4273 27.3693 29.5545 27.2209 29.7029 27.1149C29.8513 26.9877 29.9997 27.0301 30.0845 27.1997C30.1481 27.3269 30.2117 27.4753 30.2329 27.6025C30.3389 28.3657 30.4237 29.1501 30.5085 29.9133C30.5933 30.6341 30.6781 31.3761 30.8053 32.0969C31.0809 33.5809 31.6321 34.9589 32.3529 36.2733C32.6497 36.8245 33.0949 37.2273 33.6037 37.5665C34.2185 37.9693 34.8969 38.1813 35.5965 38.3297C36.2325 38.4569 36.7413 38.2873 37.1865 37.7997C37.5469 37.3969 37.9497 37.0153 38.3525 36.6337C38.5645 36.4429 38.7977 36.2733 39.0309 36.1037C39.2429 35.9553 39.4761 35.9129 39.7305 35.9341C40.0909 35.9765 40.4725 36.0189 40.8117 36.1673C41.1085 36.2945 41.4265 36.4005 41.7233 36.5065C42.1685 36.6549 42.6349 36.7609 43.1225 36.6973C43.7797 36.6125 44.3733 36.3581 44.9245 35.9977C45.7513 35.4677 46.2389 34.6833 46.5993 33.7929C47.0445 32.6905 47.0021 31.5033 46.9385 30.3585C46.8749 29.4257 46.5569 28.5777 46.1117 27.7933C45.8997 27.4117 45.7089 27.0089 45.5181 26.6061C45.4757 26.5001 45.4121 26.4577 45.3273 26.4153C44.9881 26.3517 44.6277 26.2033 44.4581 25.8217ZM25.1237 21.0093C25.1025 21.0093 25.1025 21.0093 25.0813 20.9881C25.0177 20.8397 24.9965 20.6701 24.9117 20.5217C24.6785 20.0341 24.5089 19.5253 24.3817 19.0165C24.2333 18.4017 24.1697 17.7869 24.3181 17.1721C24.4029 16.8329 24.4665 16.4937 24.5089 16.1333C24.5513 15.8365 24.5513 15.5185 24.5937 15.2217C24.6785 14.6705 24.7421 14.1193 24.7633 13.5469C24.7633 13.2501 24.7845 12.9745 24.7845 12.6777C24.7845 11.9569 24.8269 11.2361 24.8057 10.4941C24.7845 9.83688 24.6361 9.17968 24.4241 8.56488C23.9789 7.16568 23.2581 5.93608 22.2829 4.83368C21.4349 3.90088 20.4597 3.13768 19.2937 2.62888C18.5941 2.33208 17.8733 2.14128 17.0889 2.12008C16.7497 2.12008 16.3893 2.12008 16.0501 2.12008C15.5413 2.12008 15.0537 2.24728 14.5873 2.45928C14.0785 2.71368 13.6969 3.13768 13.3789 3.58288C12.6157 4.62168 12.1917 5.80888 12.1069 7.10208C12.0645 7.75928 12.0857 8.43768 12.1069 9.09488C12.1069 9.30688 12.1281 9.51888 12.1705 9.73088C12.2553 10.1549 12.3401 10.5789 12.4249 11.0029C12.4673 11.2785 12.5309 11.5541 12.4673 11.8297C12.4249 12.0417 12.2977 12.1689 12.0645 12.1477C11.9797 12.1477 11.8949 12.1265 11.8313 12.1053C10.7501 11.7449 9.64772 11.5117 8.50292 11.4481C7.93052 11.4269 7.33692 11.4057 6.76452 11.4905C5.70452 11.6389 4.83532 12.1265 4.05092 12.8473C3.62692 13.2501 3.28772 13.7165 2.96972 14.2041C2.22772 15.3913 1.88852 16.6209 1.82492 17.9777C1.78252 18.6985 1.86732 19.3981 2.01572 20.0977C2.20652 20.9669 2.56692 21.7513 3.20292 22.4085C3.64812 22.8749 4.11452 23.2989 4.60212 23.7229C4.85652 23.9349 5.11092 24.1469 5.38652 24.3165C6.10732 24.7617 6.93412 25.0585 7.57012 25.6309C7.42172 25.3129 7.25212 25.0161 7.08252 24.6981C6.63732 23.9349 6.36172 23.1293 6.29812 22.2389C6.23452 21.5393 6.25572 20.8609 6.31932 20.1613C6.40412 19.3557 6.61612 18.6137 7.04012 17.9141C7.29452 17.5113 7.57012 17.1085 7.93052 16.7905C8.35452 16.4089 8.86332 16.1757 9.39332 15.9637C9.71132 15.8577 10.0081 15.7517 10.3473 15.7517C10.8137 15.7517 11.2377 15.8577 11.6829 15.9849C12.2341 16.1545 12.7429 16.4089 13.3153 16.4937C13.7181 16.5361 14.0785 16.4937 14.3965 16.2605C15.0113 15.7941 15.5413 15.2853 16.0501 14.6917C16.4317 14.2465 16.9405 13.9921 17.5129 14.0769C18.2761 14.1829 19.0181 14.4373 19.6965 14.8613C20.1417 15.1581 20.5657 15.4761 20.8625 15.9425C21.3501 16.7693 21.7317 17.6385 22.0709 18.5289C22.4525 19.5677 22.6645 20.6489 22.7917 21.7301C22.8341 22.1329 22.8765 22.5145 22.9189 22.9173C22.9613 23.3413 23.0037 23.7653 23.0461 24.1893C23.0885 24.5073 23.1521 24.8465 23.2369 25.1645C23.3217 25.4613 23.5125 25.4825 23.7245 25.2493C23.7457 25.2281 23.7457 25.2069 23.7669 25.1857C23.8941 24.9525 24.0425 24.7193 24.1485 24.4861C24.4665 23.7653 24.6997 23.0021 24.8905 22.2389C25.0601 21.6029 25.2085 20.9669 25.3781 20.3309C25.3781 20.3309 25.3781 20.3309 25.3569 20.3309C25.2721 20.5641 25.2085 20.7973 25.1237 21.0093ZM28.1977 31.6305C28.2189 31.6305 28.2189 31.6517 28.2401 31.6517C28.3037 31.8213 28.3461 31.9909 28.4309 32.1605C28.6429 32.6269 28.8125 33.1145 28.9397 33.6233C29.0881 34.2381 29.1517 34.8317 29.0033 35.4677C28.8973 35.9129 28.7913 36.3369 28.7701 36.7821C28.7701 36.9941 28.7277 37.2061 28.7065 37.4181C28.6641 37.8421 28.5793 38.2873 28.5581 38.7113C28.5157 39.3897 28.5157 40.0681 28.4945 40.7465C28.4945 41.2129 28.4733 41.6793 28.4945 42.1457C28.5157 42.7393 28.6429 43.2905 28.8125 43.8629C29.3849 45.7497 30.4025 47.3397 31.8653 48.6329C32.4801 49.1841 33.1797 49.6293 33.9429 49.9685C34.6213 50.2653 35.3421 50.4349 36.0841 50.4985C36.6353 50.5409 37.1865 50.5197 37.7165 50.4561C38.6069 50.3501 39.2853 49.8625 39.8153 49.1417C40.6209 48.0605 41.0873 46.8309 41.1509 45.4741C41.1933 44.8381 41.1721 44.1809 41.1509 43.5237C41.1509 43.3117 41.1297 43.0997 41.0873 42.8877C41.0025 42.4637 40.9177 42.0397 40.8329 41.6157C40.7905 41.3401 40.7269 41.0433 40.7905 40.7465C40.8329 40.5345 40.9601 40.4285 41.1933 40.4285C41.2781 40.4285 41.3417 40.4497 41.4265 40.4709C42.4865 40.8101 43.5677 41.0645 44.6701 41.1281C45.2849 41.1705 45.9209 41.1705 46.5357 41.0857C47.5745 40.9373 48.4437 40.4497 49.2069 39.7501C49.6521 39.3473 49.9701 38.8597 50.3093 38.3721C51.0725 37.2273 51.4329 35.9765 51.4753 34.6197C51.4965 33.9201 51.4329 33.2417 51.2845 32.5633C51.0725 31.6093 50.6485 30.7613 49.9489 30.0617C49.5885 29.7225 49.2281 29.3833 48.8677 29.0441C48.4861 28.6837 48.0833 28.3869 47.6169 28.1537C46.9597 27.8145 46.2813 27.5177 45.7301 27.0089C45.8149 27.1785 45.8997 27.3481 45.9845 27.5177C46.5781 28.5141 47.0021 29.5529 47.0233 30.7401C47.0445 31.5245 47.0445 32.3089 46.8961 33.0721C46.7265 34.0473 46.2389 34.8741 45.6029 35.6161C45.2001 36.0613 44.6913 36.3793 44.1189 36.5701C43.7797 36.6761 43.4617 36.8245 43.1013 36.8669C42.6349 36.9305 42.1897 36.8245 41.7445 36.6973C41.1509 36.5277 40.5785 36.2097 39.9425 36.1461C39.5821 36.1037 39.2429 36.1249 38.9249 36.3581C38.3101 36.8033 37.7589 37.3333 37.2501 37.9269C36.8473 38.3933 36.3385 38.6477 35.7237 38.5629C35.0029 38.4569 34.3033 38.2237 33.6673 37.8421C33.2009 37.5453 32.7557 37.2273 32.4589 36.7397C32.0137 36.0189 31.6533 35.2345 31.3565 34.4501C30.9113 33.3265 30.6569 32.1393 30.5297 30.9309C30.4873 30.5281 30.4449 30.1465 30.4025 29.7437C30.3601 29.3197 30.3177 28.8957 30.2753 28.4505C30.2329 28.1325 30.1693 27.8145 30.0845 27.4965C30.0633 27.3693 29.9997 27.2421 29.8725 27.2421C29.7665 27.2421 29.6393 27.3269 29.5757 27.4329C29.4273 27.6661 29.2789 27.8993 29.1729 28.1537C28.7913 29.0017 28.5581 29.9133 28.3037 30.8249C28.1765 31.3125 28.0493 31.8213 27.9433 32.3301C27.9433 32.3301 27.9433 32.3301 27.9645 32.3301C28.0493 32.0545 28.1129 31.8425 28.1977 31.6305ZM27.3497 7.22928C27.5617 7.10208 27.7949 6.99608 28.0069 6.86888C28.8973 6.33888 29.8513 5.95728 30.9113 5.91488C31.7169 5.87248 32.5225 5.87248 33.3069 5.99968C34.3245 6.16928 35.1937 6.65688 35.9569 7.33528C36.4657 7.78048 36.7625 8.37408 36.9745 8.98888C37.1017 9.34928 37.2501 9.70968 37.2077 10.0913C37.1653 10.4729 37.1017 10.8545 36.9957 11.2149C36.8473 11.7873 36.5717 12.2961 36.4657 12.8897C36.4021 13.3349 36.4445 13.7165 36.7201 14.0769C37.1865 14.6705 37.6953 15.2217 38.2677 15.7093C38.6917 16.0697 38.9249 16.5361 38.8613 17.0873C38.7765 17.8717 38.5221 18.6137 38.0981 19.3133C37.8013 19.7797 37.4621 20.2249 36.9957 20.5217C36.2749 20.9669 35.5117 21.3061 34.7485 21.6029C33.8793 21.9421 32.9889 22.1965 32.0773 22.3025C31.5473 22.3661 31.0173 22.4297 30.4873 22.4933C29.9573 22.5569 29.4273 22.5993 28.8973 22.6629C28.5369 22.7053 28.1977 22.7689 27.8373 22.8537C27.7101 22.8749 27.5617 22.9173 27.5405 23.0869C27.5193 23.2353 27.6253 23.3413 27.7525 23.4261C28.0281 23.5957 28.3037 23.7441 28.6005 23.8713C29.5333 24.2529 30.5085 24.5073 31.4837 24.7617C31.8229 24.8465 32.1833 24.9313 32.5225 25.0161C32.5225 25.0161 32.5225 25.0161 32.5225 24.9949C32.3317 24.9313 32.1409 24.8465 31.9289 24.7829C32.1621 24.6981 32.3741 24.6345 32.5649 24.5285C33.0313 24.3165 33.5189 24.1681 34.0065 24.0409C34.5577 23.9137 35.1301 23.8501 35.7025 23.9773C36.0205 24.0409 36.3385 24.1257 36.6565 24.1681C36.9745 24.2105 37.2713 24.2105 37.5893 24.2529C38.2677 24.3589 38.9249 24.4225 39.6245 24.4437C39.9637 24.4437 40.3029 24.4649 40.6209 24.4861C41.1085 24.5073 41.5961 24.5285 42.0625 24.5285C42.7409 24.5073 43.3981 24.4013 44.0553 24.2105C46.1541 23.6169 47.8925 22.4509 49.2705 20.7549C49.9065 19.9705 50.3517 19.1013 50.6273 18.1261C50.8393 17.3841 50.8605 16.6209 50.8393 15.8577C50.8393 15.6245 50.7969 15.4125 50.7757 15.1793C50.6485 14.3949 50.2457 13.7801 49.6309 13.2713C48.5497 12.4021 47.3413 11.9357 45.9633 11.8085C45.3697 11.7661 44.7761 11.7661 44.1613 11.7873C43.8009 11.7873 43.4405 11.8297 43.0801 11.8933C42.6773 11.9569 42.2745 12.0629 41.8717 12.1265C41.5961 12.1689 41.2993 12.2113 41.0237 12.1477C40.8117 12.0841 40.7057 11.9145 40.7481 11.7025C40.7481 11.6389 40.7693 11.5965 40.7905 11.5541C41.1085 10.5365 41.3629 9.51888 41.4477 8.43768C41.4901 7.78048 41.5113 7.12328 41.4265 6.46608C41.2357 5.19408 40.5785 4.17648 39.6457 3.34968C39.3489 3.09528 39.0097 2.88328 38.6705 2.65008C37.6105 1.90808 36.4445 1.59008 35.1725 1.50528C34.4941 1.46288 33.8157 1.50528 33.1373 1.63248C32.0561 1.82328 31.1233 2.28968 30.3601 3.07408C30.1481 3.30728 29.9149 3.51928 29.7029 3.77368C29.4485 4.04928 29.1517 4.32488 28.9397 4.64288C28.6641 5.04568 28.4521 5.46968 28.2189 5.89368C27.9645 6.33888 27.7101 6.82648 27.3497 7.22928ZM21.3501 27.8569C21.3501 27.8781 21.3501 27.8781 21.3289 27.8993C21.1805 27.9629 21.0109 27.9841 20.8625 28.0689C20.3325 28.3233 19.7601 28.5141 19.1877 28.6413C18.7001 28.7473 18.2337 28.8109 17.7461 28.7049C17.2585 28.6201 16.7497 28.5141 16.2621 28.4505C15.8593 28.3869 15.4565 28.3233 15.0325 28.3021C14.4389 28.2597 13.8241 28.2173 13.2093 28.1961C12.6369 28.1749 12.0433 28.1749 11.4709 28.1537C10.6865 28.1325 9.90212 28.2597 9.16012 28.4717C7.67612 28.8957 6.36172 29.6377 5.19572 30.6765C4.26292 31.5033 3.52092 32.4573 3.01212 33.6021C2.71532 34.3017 2.52452 35.0225 2.48212 35.7645C2.46092 36.2309 2.48212 36.6973 2.50332 37.1637C2.52452 37.6513 2.67292 38.1177 2.90612 38.5417C3.13932 38.9445 3.47852 39.2413 3.81772 39.4957C4.98372 40.3861 6.29812 40.8313 7.76092 40.8525C8.35452 40.8737 8.92692 40.8525 9.52052 40.8313C9.92332 40.8101 10.3049 40.7465 10.7077 40.6829C11.1529 40.5981 11.5981 40.4709 12.0857 40.4921C12.4037 40.5133 12.6369 40.6829 12.5309 41.0433C12.5097 41.0857 12.5097 41.1493 12.4885 41.1917C12.1705 42.1881 11.9373 43.1845 11.8525 44.2233C11.7889 44.9017 11.7889 45.5589 11.8737 46.2373C12.0645 47.5517 12.7429 48.5481 13.7181 49.3961C13.9937 49.6505 14.3329 49.8201 14.6297 50.0533C15.6473 50.7529 16.7921 51.0921 18.0217 51.1769C18.8061 51.2405 19.5905 51.1769 20.3537 51.0073C21.2653 50.8165 22.0921 50.4349 22.7705 49.7777C23.0885 49.4809 23.3853 49.1417 23.6821 48.8237C23.9789 48.4845 24.3181 48.1877 24.5513 47.7637C24.7421 47.4245 24.9117 47.1065 25.0813 46.7673C25.3357 46.3009 25.5901 45.8133 25.9505 45.4105C25.6749 45.5589 25.3993 45.6861 25.1237 45.8557C24.2969 46.3433 23.4065 46.6613 22.4313 46.7249C21.6681 46.7673 20.8837 46.7673 20.1205 46.6613C19.0817 46.5129 18.1913 46.0465 17.4069 45.3681C16.8981 44.9229 16.5801 44.3717 16.3469 43.7357C16.1985 43.3329 16.0289 42.9513 16.0713 42.5273C16.1137 42.1457 16.1773 41.7853 16.2833 41.4249C16.4317 40.8525 16.7285 40.3225 16.8133 39.7289C16.8769 39.3261 16.8557 38.9233 16.6013 38.5841C16.4105 38.3509 16.2197 38.0965 16.0077 37.8845C15.6049 37.4817 15.1809 37.1001 14.7993 36.6761C14.5025 36.3581 14.3541 35.9341 14.4177 35.5101C14.5237 34.7257 14.7781 33.9625 15.2021 33.2841C15.5413 32.7329 15.9653 32.2665 16.5589 31.9485C17.2373 31.5881 17.9157 31.2701 18.6153 30.9945C19.6541 30.5917 20.7353 30.3373 21.8589 30.2101C22.2829 30.1677 22.7281 30.1253 23.1521 30.0617C23.6609 29.9981 24.1697 29.9557 24.6785 29.8921C24.9753 29.8497 25.2933 29.7861 25.5689 29.7013C25.8021 29.6377 25.8233 29.4893 25.6537 29.2985C25.6325 29.2773 25.6113 29.2349 25.5689 29.2137C25.3145 29.0653 25.0601 28.8957 24.7845 28.7897C23.8093 28.3657 22.7917 28.1113 21.7741 27.8569C21.4349 27.7721 21.0745 27.6873 20.7353 27.6025C20.7353 27.6025 20.7353 27.6025 20.7353 27.6237C20.9473 27.7085 21.1593 27.7721 21.3501 27.8569Z" fill="white"/>
<path d="M44.458 25.8216C44.6276 26.2032 44.988 26.3304 45.3484 26.4788C45.4544 26.5212 45.4968 26.5848 45.5392 26.6696C45.73 27.0724 45.9208 27.4752 46.1328 27.8568C46.5992 28.6624 46.9172 29.5104 46.9596 30.422C47.0232 31.588 47.0656 32.754 46.6204 33.8564C46.26 34.7468 45.7512 35.5312 44.9456 36.0612C44.3944 36.4216 43.8008 36.676 43.1436 36.7608C42.6772 36.8244 42.2108 36.7184 41.7444 36.57C41.4264 36.464 41.1296 36.358 40.8328 36.2308C40.4724 36.0824 40.112 36.04 39.7516 35.9976C39.4972 35.9764 39.2428 36.0188 39.052 36.1672C38.8188 36.3368 38.5856 36.5064 38.3736 36.6972C37.9708 37.0788 37.5892 37.4604 37.2076 37.8632C36.7624 38.3296 36.2536 38.5204 35.6176 38.3932C34.918 38.2448 34.2396 38.0116 33.6248 37.63C33.116 37.2908 32.6708 36.888 32.374 36.3368C31.6744 35.0224 31.102 33.6444 30.8264 32.1604C30.6992 31.4396 30.6144 30.6976 30.5296 29.9768C30.4236 29.2136 30.36 28.4292 30.254 27.666C30.2328 27.5176 30.1692 27.3904 30.1056 27.2632C30.0208 27.0936 29.8512 27.0512 29.724 27.1784C29.5756 27.3056 29.4484 27.454 29.3636 27.6024C29.1516 28.0688 28.9396 28.5352 28.77 29.0016C28.3248 30.316 28.0068 31.694 27.71 33.0508C27.4344 34.4076 27.1588 35.7644 26.8832 37.1212C26.65 38.372 26.5652 39.6228 26.6288 40.8948C26.6924 42.0184 26.862 43.142 27.18 44.2444C27.18 44.2868 27.2012 44.3292 27.18 44.3716C27.0952 44.5624 27.0104 44.7532 26.9044 44.9228C26.862 45.0076 26.7772 45.05 26.7136 45.1136C26.65 45.1772 26.5864 45.1984 26.5016 45.156C26.4592 45.1348 26.3532 45.156 26.2896 45.1772C25.908 45.368 25.5264 45.5376 25.166 45.7496C24.6572 46.0252 24.1696 46.3008 23.5972 46.428C23.1096 46.5552 22.6432 46.6188 22.1344 46.64C21.456 46.6612 20.7776 46.6612 20.0992 46.5552C19.1452 46.4068 18.3396 45.9828 17.5976 45.3892C17.1524 45.0288 16.8132 44.5624 16.58 44.0324C16.5376 43.9264 16.4952 43.8204 16.4528 43.7144C16.156 43.0784 16.0924 42.4424 16.2832 41.764C16.4104 41.2976 16.6012 40.8312 16.7496 40.3648C16.8344 40.068 16.898 39.7712 16.9404 39.4532C17.004 39.114 16.898 38.7748 16.6648 38.5204C16.2832 38.0752 15.9016 37.6512 15.52 37.2484C15.3716 37.0788 15.1808 36.9304 15.0112 36.782C14.5872 36.3792 14.4388 35.8916 14.5448 35.3404C14.672 34.6408 14.9052 33.9624 15.2868 33.3476C15.6472 32.7964 16.0712 32.33 16.6648 32.012C18.0004 31.2912 19.3996 30.74 20.9048 30.4856C21.668 30.3584 22.4312 30.2948 23.1944 30.1888C23.9152 30.104 24.6572 29.998 25.378 29.9132C25.484 29.892 25.5688 29.8496 25.6748 29.8284C25.9292 29.7224 25.9716 29.5316 25.7808 29.3408C25.6748 29.2348 25.5476 29.1076 25.3992 29.044C24.9752 28.8532 24.53 28.6412 24.0848 28.4928C22.622 27.984 21.1168 27.6448 19.5904 27.3268C18.3608 27.0724 17.1312 26.818 15.9016 26.5848C14.566 26.3304 13.2304 26.2668 11.8736 26.3516C10.7076 26.4152 9.58402 26.6272 8.48162 26.9664C8.46042 26.9664 8.41802 26.9876 8.43922 26.9664C8.20602 26.7332 7.99402 26.5212 7.76082 26.3092C7.88802 26.2244 7.86682 26.0972 7.80322 25.97C7.61242 25.5884 7.44282 25.2068 7.23082 24.8252C6.76442 24.0196 6.44642 23.1716 6.38282 22.26C6.31922 21.1152 6.27682 19.9704 6.70082 18.868C7.08242 17.8928 7.63362 17.0448 8.54522 16.4936C9.05402 16.1968 9.60522 15.9636 10.1988 15.8788C10.6652 15.8152 11.1316 15.9212 11.5768 16.0696C11.916 16.1756 12.2552 16.3028 12.5732 16.43C12.8912 16.5572 13.2304 16.5996 13.5696 16.642C13.8664 16.6844 14.142 16.6208 14.3752 16.43C14.672 16.218 14.9688 15.9848 15.2232 15.7304C15.5624 15.4124 15.8592 15.0944 16.1772 14.7552C16.6012 14.2888 17.11 14.1192 17.7248 14.2464C18.4244 14.3948 19.0816 14.6068 19.6964 14.9884C20.2264 15.3276 20.6928 15.7516 21.0108 16.324C21.7316 17.6384 22.2828 19.0164 22.5584 20.5004C22.6856 21.2212 22.7492 21.9632 22.8552 22.7052C22.94 23.4684 23.0248 24.2316 23.1308 24.9948C23.152 25.1432 23.2156 25.2704 23.2792 25.3976C23.364 25.5672 23.5124 25.6096 23.6608 25.4824C23.8092 25.3552 23.9576 25.2068 24.0212 25.0372C24.2332 24.5708 24.4452 24.1044 24.6148 23.638C25.06 22.3236 25.378 20.9456 25.6748 19.5888C25.9504 18.232 26.226 16.8752 26.4804 15.5184C26.7348 14.1404 26.8196 12.7412 26.6924 11.342C26.65 10.812 26.5652 10.3032 26.5016 9.77321C26.5016 9.68841 26.5228 9.60361 26.544 9.54001C26.6288 9.39161 26.756 9.24321 26.8408 9.09481C26.9044 8.94641 26.968 8.79801 26.9892 8.62841C27.0104 8.28921 27.0104 7.95001 27.0316 7.63201C27.0316 7.58961 27.074 7.52601 27.0952 7.50481C27.5616 7.25041 28.0492 7.01721 28.5156 6.76281C29.3 6.33881 30.148 6.08441 31.0384 6.04201C31.9712 5.99961 32.904 5.97841 33.8156 6.25401C34.918 6.57201 35.872 7.14441 36.508 8.14081C36.8684 8.69201 37.1228 9.30681 37.1864 9.98521C37.2288 10.4728 37.1016 10.918 36.9532 11.3844C36.8472 11.7024 36.7412 11.9992 36.614 12.296C36.4868 12.6352 36.4444 12.9744 36.4232 13.3348C36.402 13.6316 36.508 13.886 36.6776 14.1404C37.144 14.7764 37.6952 15.3276 38.2676 15.8364C38.5856 16.112 38.7764 16.43 38.8188 16.8328C38.84 17.0448 38.8188 17.2568 38.7764 17.4688C38.6492 18.1472 38.416 18.8044 38.0344 19.398C37.6952 19.928 37.2924 20.3732 36.72 20.67C35.3844 21.3908 33.9852 21.9632 32.5012 22.2176C31.7592 22.3448 30.996 22.4296 30.254 22.5144C29.512 22.5992 28.7488 22.684 28.0068 22.79C27.8796 22.8112 27.7524 22.8748 27.6252 22.9384C27.4768 23.0232 27.4344 23.1504 27.5404 23.2988C27.6464 23.426 27.7524 23.5532 27.8796 23.6168C28.3248 23.8288 28.7912 24.062 29.2576 24.2104C30.6356 24.698 32.056 25.016 33.4976 25.3128C34.8544 25.5884 36.2324 25.864 37.5892 26.1396C38.9036 26.394 40.2392 26.4576 41.5748 26.3516C42.5288 26.288 43.4828 26.1396 44.4156 25.8852C44.4156 25.8216 44.4156 25.8216 44.458 25.8216Z" fill="white"/>
<path d="M25.1237 21.0092C25.2085 20.7972 25.2721 20.5852 25.3569 20.352C25.3569 20.352 25.3569 20.352 25.3781 20.352C25.2085 20.988 25.0601 21.624 24.8905 22.26C24.6785 23.0232 24.4665 23.7864 24.1485 24.5072C24.0425 24.7616 23.8941 24.9736 23.7669 25.2068C23.7457 25.228 23.7457 25.2492 23.7245 25.2704C23.5125 25.5036 23.3429 25.4824 23.2369 25.1856C23.1521 24.8676 23.0885 24.5496 23.0461 24.2104C22.9825 23.7864 22.9613 23.3624 22.9189 22.9384C22.8765 22.5356 22.8553 22.154 22.7917 21.7512C22.6645 20.6488 22.4525 19.5888 22.0709 18.55C21.7529 17.6596 21.3713 16.7692 20.8625 15.9636C20.5869 15.4972 20.1629 15.1792 19.6965 14.8824C19.0181 14.4584 18.2761 14.204 17.5129 14.098C16.9405 14.0132 16.4529 14.2464 16.0501 14.7128C15.5625 15.2852 15.0113 15.8152 14.3965 16.2816C14.0785 16.5148 13.7181 16.5784 13.3153 16.5148C12.7429 16.43 12.2129 16.1968 11.6829 16.006C11.2589 15.8576 10.8137 15.7728 10.3473 15.7728C10.0081 15.7728 9.69008 15.8788 9.39328 15.9848C8.86328 16.1756 8.35448 16.43 7.93048 16.8116C7.57008 17.1296 7.29448 17.5324 7.04008 17.9352C6.61608 18.6136 6.38288 19.3768 6.31928 20.1824C6.25568 20.882 6.23448 21.5604 6.29808 22.26C6.36168 23.1292 6.63728 23.956 7.08248 24.7192C7.25208 25.016 7.42168 25.334 7.57008 25.652C6.93408 25.0796 6.10728 24.7828 5.38648 24.3376C5.11088 24.168 4.83528 23.9772 4.60208 23.744C4.13568 23.32 3.64808 22.8748 3.20288 22.4296C2.58808 21.7724 2.20648 20.988 2.01568 20.1188C1.86728 19.4192 1.78248 18.7196 1.82488 17.9988C1.88848 16.6632 2.22768 15.4124 2.99088 14.2888C3.33008 13.8012 3.64808 13.3136 4.07208 12.932C4.85648 12.2112 5.72568 11.7236 6.78568 11.5752C7.35808 11.4904 7.93048 11.5116 8.52408 11.5328C9.66888 11.5964 10.7713 11.8508 11.8525 12.19C11.9373 12.2112 12.0221 12.2324 12.0857 12.2324C12.3189 12.2324 12.4461 12.1264 12.4885 11.9144C12.5521 11.6388 12.4885 11.3632 12.4461 11.0876C12.3613 10.6636 12.2765 10.2396 12.1917 9.81563C12.1493 9.60363 12.1281 9.39163 12.1281 9.17963C12.1281 8.52243 12.0857 7.84403 12.1281 7.18683C12.1917 5.89363 12.6369 4.70643 13.4001 3.66763C13.7181 3.22243 14.0997 2.79843 14.6085 2.54403C15.0749 2.33203 15.5625 2.20483 16.0713 2.20483C16.4105 2.20483 16.7709 2.20483 17.1101 2.20483C17.8733 2.22603 18.6153 2.41683 19.3149 2.71363C20.4809 3.22243 21.4561 3.96443 22.3041 4.91843C23.2793 6.02083 24.0001 7.25043 24.4453 8.64963C24.6361 9.28563 24.8057 9.92163 24.8269 10.5788C24.8481 11.2996 24.8269 12.0204 24.8057 12.7624C24.8057 13.0592 24.7845 13.3348 24.7845 13.6316C24.7633 14.1828 24.7209 14.7552 24.6149 15.3064C24.5725 15.6032 24.5725 15.9 24.5301 16.218C24.4877 16.5572 24.4029 16.9176 24.3393 17.2568C24.1909 17.8716 24.2545 18.4864 24.4029 19.1012C24.5301 19.6312 24.6997 20.1188 24.9329 20.6064C24.9965 20.7548 25.0389 20.9032 25.1025 21.0728C25.1025 20.988 25.1025 21.0092 25.1237 21.0092Z" fill="#8ABB63"/>
<path d="M28.1976 31.6305C28.134 31.8425 28.0492 32.0545 27.9856 32.2665C27.9856 32.2665 27.9856 32.2665 27.9644 32.2665C28.0916 31.7577 28.1976 31.2701 28.3248 30.7613C28.558 29.8497 28.8124 28.9593 29.194 28.0901C29.3 27.8357 29.4484 27.6025 29.5968 27.3693C29.6604 27.2845 29.7876 27.1997 29.8936 27.1785C30.0208 27.1785 30.0844 27.3269 30.1056 27.4329C30.1692 27.7509 30.254 28.0689 30.2964 28.3869C30.36 28.8109 30.3812 29.2349 30.4236 29.6801C30.466 30.0829 30.4872 30.4645 30.5508 30.8673C30.678 32.0757 30.9324 33.2417 31.3776 34.3865C31.6956 35.1709 32.0348 35.9553 32.48 36.6761C32.7768 37.1425 33.222 37.4817 33.6884 37.7785C34.3244 38.1601 35.024 38.3933 35.7448 38.4993C36.3596 38.5841 36.8684 38.3297 37.2712 37.8633C37.78 37.2909 38.31 36.7397 38.946 36.2945C39.264 36.0613 39.6032 36.0613 39.9636 36.0825C40.5996 36.1461 41.1508 36.4429 41.7656 36.6337C42.2108 36.7609 42.6772 36.8669 43.1224 36.8033C43.4616 36.7609 43.8008 36.6125 44.14 36.5065C44.7124 36.3157 45.2212 35.9977 45.624 35.5525C46.2812 34.8317 46.7476 33.9837 46.9172 33.0085C47.0656 32.2453 47.0656 31.4609 47.0444 30.6765C47.002 29.4893 46.5992 28.4505 46.0056 27.4541C45.8996 27.2845 45.836 27.1361 45.7512 26.9453C46.3024 27.4541 46.9808 27.7509 47.638 28.0901C48.1044 28.3233 48.5072 28.6201 48.8888 28.9805C49.2492 29.3197 49.6096 29.6589 49.97 29.9981C50.6696 30.6977 51.0936 31.5457 51.3056 32.4997C51.454 33.1781 51.5176 33.8565 51.4964 34.5561C51.4328 35.9129 51.0936 37.1637 50.3304 38.3085C49.9912 38.7961 49.6732 39.2837 49.228 39.6865C48.4648 40.3861 47.5956 40.8737 46.5568 41.0221C45.942 41.1069 45.306 41.1069 44.6912 41.0645C43.5676 41.0009 42.5076 40.7465 41.4476 40.4073C41.384 40.3861 41.2992 40.3649 41.2144 40.3649C41.0024 40.3649 40.8752 40.4709 40.8116 40.6829C40.748 40.9797 40.8116 41.2553 40.854 41.5521C40.9388 41.9761 41.0236 42.4001 41.1084 42.8241C41.1508 43.0361 41.172 43.2481 41.172 43.4601C41.172 44.1173 41.2144 44.7533 41.172 45.4105C41.0872 46.7673 40.642 47.9969 39.8364 49.0781C39.3064 49.7777 38.628 50.2865 37.7376 50.3925C37.1864 50.4561 36.6564 50.4773 36.1052 50.4349C35.3632 50.3925 34.6424 50.2017 33.964 49.9049C33.2008 49.5657 32.5012 49.1205 31.8864 48.5693C30.4236 47.2761 29.406 45.6649 28.8336 43.7993C28.664 43.2481 28.5368 42.6757 28.5156 42.0821C28.4944 41.6157 28.4944 41.1493 28.5156 40.6829C28.5368 40.0045 28.5368 39.3261 28.5792 38.6477C28.6004 38.2237 28.6852 37.7785 28.7276 37.3545C28.7488 37.1425 28.77 36.9305 28.7912 36.7185C28.8124 36.2733 28.8972 35.8281 29.0244 35.4041C29.1728 34.7893 29.1092 34.1745 28.9608 33.5597C28.8336 33.0509 28.664 32.5633 28.452 32.0969C28.3672 31.9273 28.3248 31.7577 28.2612 31.5881C28.2188 31.6305 28.1976 31.6305 28.1976 31.6305Z" fill="#8ABB63"/>
<path d="M27.3496 7.22936C27.7312 6.82656 27.9644 6.33896 28.2188 5.87256C28.452 5.44856 28.664 5.02456 28.9396 4.62176C29.1516 4.30376 29.4484 4.02816 29.7028 3.75256C29.9148 3.51936 30.148 3.28616 30.36 3.05296C31.1232 2.26856 32.056 1.82336 33.1372 1.61136C33.8156 1.48416 34.494 1.44176 35.1724 1.48416C36.4444 1.56896 37.6104 1.88696 38.6704 2.62896C38.9884 2.86216 39.3488 3.05296 39.6456 3.32856C40.5996 4.15536 41.2568 5.17296 41.4264 6.44496C41.5112 7.10216 41.5112 7.75936 41.4476 8.41656C41.3628 9.47656 41.1084 10.5154 40.7904 11.533C40.7692 11.5754 40.748 11.639 40.748 11.6814C40.7056 11.8934 40.8116 12.063 41.0236 12.1266C41.2992 12.2114 41.596 12.169 41.8716 12.1054C42.2744 12.0206 42.6772 11.9358 43.08 11.8722C43.4404 11.8086 43.8008 11.7874 44.1612 11.7662C44.7548 11.7662 45.3696 11.745 45.9632 11.7874C47.32 11.9146 48.5496 12.381 49.6308 13.2502C50.2456 13.759 50.6484 14.3526 50.7756 15.1582C50.818 15.3702 50.8392 15.6034 50.8392 15.8366C50.8604 16.5998 50.8392 17.363 50.6272 18.105C50.3516 19.0802 49.9064 19.9494 49.2704 20.7338C47.9136 22.4298 46.154 23.5746 44.0552 24.1894C43.398 24.3802 42.7408 24.4862 42.0624 24.5074C41.5748 24.5286 41.0872 24.4862 40.6208 24.465C40.2816 24.465 39.9424 24.4438 39.6244 24.4226C38.946 24.4226 38.2676 24.3378 37.5892 24.2318C37.2924 24.1894 36.9744 24.1894 36.6564 24.147C36.3384 24.1046 36.0204 24.0198 35.7024 23.9562C35.13 23.829 34.5788 23.8926 34.0064 24.0198C33.5188 24.147 33.0312 24.2954 32.5648 24.5074C32.374 24.5922 32.162 24.6558 31.9288 24.7618C32.1408 24.8466 32.3316 24.9102 32.5224 24.9738C32.5224 24.9738 32.5224 24.9738 32.5224 24.995C32.1832 24.9102 31.8228 24.8254 31.4836 24.7406C30.5084 24.4862 29.5332 24.2318 28.6004 23.8502C28.3036 23.723 28.028 23.5534 27.7524 23.405C27.6252 23.3414 27.5192 23.2354 27.5404 23.0658C27.5616 22.9174 27.71 22.875 27.8372 22.8326C28.1764 22.769 28.5368 22.6842 28.8972 22.6418C29.4272 22.5782 29.9572 22.5358 30.4872 22.4722C31.0172 22.4086 31.5472 22.345 32.0772 22.2814C32.9888 22.1542 33.8792 21.8998 34.7484 21.5818C35.5328 21.285 36.296 20.9458 36.9956 20.5006C37.4832 20.2038 37.8224 19.7798 38.098 19.2922C38.522 18.6138 38.7764 17.8718 38.8612 17.0662C38.9248 16.5362 38.6916 16.0698 38.2676 15.6882C37.6952 15.2006 37.1864 14.6494 36.72 14.0558C36.4444 13.6954 36.402 13.2926 36.4656 12.8686C36.5504 12.275 36.8472 11.7662 36.9956 11.1938C37.1016 10.8334 37.1652 10.4518 37.2076 10.0702C37.25 9.68856 37.1016 9.32816 36.9744 8.96776C36.7412 8.33176 36.4444 7.75936 35.9568 7.31416C35.1936 6.63576 34.3244 6.16936 33.3068 5.97856C32.5012 5.83016 31.6956 5.85136 30.9112 5.89376C29.8512 5.93616 28.8972 6.31776 28.0068 6.84776C27.7736 6.99616 27.5616 7.10216 27.3496 7.22936Z" fill="#8ABB63"/>
<path d="M21.3502 27.857C21.1594 27.7934 20.9474 27.7086 20.7566 27.645C20.7566 27.645 20.7566 27.645 20.7566 27.6238C21.0958 27.7086 21.4562 27.7934 21.7954 27.8782C22.813 28.1326 23.8306 28.4082 24.8058 28.811C25.0814 28.9382 25.3358 29.0866 25.5902 29.235C25.6114 29.2562 25.6538 29.2774 25.675 29.3198C25.8446 29.5106 25.8234 29.659 25.5902 29.7226C25.2934 29.8074 24.9966 29.871 24.6998 29.9134C24.191 29.977 23.6822 30.0194 23.1734 30.083C22.7494 30.1254 22.3042 30.1678 21.8802 30.2314C20.7778 30.3586 19.6966 30.613 18.6366 31.0158C17.937 31.2914 17.2374 31.6094 16.5802 31.9698C15.9866 32.2878 15.5626 32.7542 15.2234 33.3054C14.7994 33.9838 14.545 34.747 14.439 35.5314C14.3754 35.9554 14.5238 36.3794 14.8206 36.6974C15.2234 37.1002 15.6474 37.4818 16.029 37.9058C16.241 38.1178 16.4318 38.3722 16.6226 38.6054C16.8982 38.9446 16.8982 39.3262 16.8346 39.7502C16.7498 40.3438 16.453 40.8738 16.3046 41.4462C16.1986 41.8066 16.135 42.1882 16.0926 42.5486C16.0502 42.9726 16.2198 43.3754 16.3682 43.757C16.6014 44.393 16.9194 44.9442 17.4282 45.3894C18.2126 46.0678 19.103 46.5342 20.1418 46.6826C20.905 46.7886 21.6894 46.7886 22.4526 46.7462C23.4066 46.6826 24.3182 46.3858 25.145 45.877C25.4206 45.7286 25.6962 45.5802 25.9718 45.4318C25.5902 45.8346 25.357 46.301 25.1026 46.7886C24.933 47.1278 24.7422 47.4458 24.5726 47.785C24.3606 48.1878 24.0002 48.5058 23.7034 48.845C23.4066 49.163 23.1098 49.5022 22.7918 49.799C22.1134 50.435 21.2866 50.8378 20.375 51.0286C19.6118 51.1982 18.8274 51.2406 18.043 51.1982C16.8134 51.1134 15.6686 50.7742 14.651 50.0746C14.333 49.8626 14.015 49.6718 13.7394 49.4174C12.7642 48.5694 12.0858 47.573 11.895 46.2586C11.789 45.5802 11.8102 44.923 11.8738 44.2446C11.9586 43.2058 12.1918 42.2094 12.5098 41.213C12.531 41.1706 12.531 41.107 12.5522 41.0646C12.6582 40.7042 12.425 40.5346 12.107 40.5134C11.6406 40.4922 11.1954 40.6194 10.729 40.7042C10.3474 40.7678 9.94461 40.8314 9.54181 40.8526C8.96941 40.895 8.37581 40.895 7.78221 40.8738C6.31941 40.8314 5.00501 40.3862 3.83901 39.517C3.47861 39.2414 3.13941 38.9446 2.92741 38.563C2.67301 38.139 2.54581 37.6726 2.52461 37.185C2.50341 36.7186 2.48221 36.2522 2.50341 35.7858C2.54581 35.0438 2.73661 34.323 3.03341 33.6234C3.54221 32.4786 4.28421 31.5246 5.21701 30.6978C6.38301 29.6802 7.69741 28.917 9.18141 28.493C9.94461 28.281 10.7078 28.1538 11.4922 28.175C12.0646 28.1962 12.6582 28.1962 13.2306 28.2174C13.8454 28.2386 14.439 28.281 15.0538 28.3234C15.4566 28.3658 15.8806 28.4082 16.2834 28.4718C16.771 28.5566 17.2798 28.6414 17.7674 28.7262C18.255 28.811 18.7426 28.7474 19.209 28.6626C19.7814 28.5354 20.3538 28.3446 20.8838 28.0902C21.0322 28.0266 21.2018 27.9842 21.3502 27.9206C21.3502 27.8782 21.3502 27.857 21.3502 27.857Z" fill="#8ABB63"/>
</g>
<defs>
<clipPath id="clip0_181_870">
<rect width="53" height="53" fill="white" transform="translate(0.34082)"/>
</clipPath>
</defs>
</svg>
