<svg xmlns="http://www.w3.org/2000/svg" display="none">

<symbol id="i-list" viewBox="0 0 65 65">
<path d="M31.7546 21.1H11.2471C11.015 21.1 10.7924 21.1922 10.6284 21.3563C10.4643 21.5204 10.3721 21.7429 10.3721 21.975C10.3721 22.207 10.4643 22.4296 10.6284 22.5937C10.7924 22.7578 11.015 22.85 11.2471 22.85H31.7546C31.9866 22.85 32.2092 22.7578 32.3733 22.5937C32.5374 22.4296 32.6296 22.207 32.6296 21.975C32.6296 21.7429 32.5374 21.5204 32.3733 21.3563C32.2092 21.1922 31.9866 21.1 31.7546 21.1Z" />
<path d="M31.7546 27.645H11.2471C11.015 27.645 10.7924 27.7372 10.6284 27.9013C10.4643 28.0654 10.3721 28.288 10.3721 28.52C10.3721 28.7521 10.4643 28.9746 10.6284 29.1387C10.7924 29.3028 11.015 29.395 11.2471 29.395H31.7546C31.9866 29.395 32.2092 29.3028 32.3733 29.1387C32.5374 28.9746 32.6296 28.7521 32.6296 28.52C32.6296 28.288 32.5374 28.0654 32.3733 27.9013C32.2092 27.7372 31.9866 27.645 31.7546 27.645Z" />
<path d="M27.5261 34.1904H11.2471C11.015 34.1904 10.7924 34.2826 10.6284 34.4467C10.4643 34.6108 10.3721 34.8334 10.3721 35.0654C10.3721 35.2975 10.4643 35.5201 10.6284 35.6842C10.7924 35.8482 11.015 35.9404 11.2471 35.9404H27.5261C27.7581 35.9404 27.9807 35.8482 28.1448 35.6842C28.3089 35.5201 28.4011 35.2975 28.4011 35.0654C28.4011 34.8334 28.3089 34.6108 28.1448 34.4467C27.9807 34.2826 27.7581 34.1904 27.5261 34.1904Z" />
<path d="M27.5261 40.736H11.2471C11.015 40.736 10.7924 40.8282 10.6284 40.9922C10.4643 41.1563 10.3721 41.3789 10.3721 41.611C10.3721 41.843 10.4643 42.0656 10.6284 42.2297C10.7924 42.3938 11.015 42.486 11.2471 42.486H27.5261C27.7581 42.486 27.9807 42.3938 28.1448 42.2297C28.3089 42.0656 28.4011 41.843 28.4011 41.611C28.4011 41.3789 28.3089 41.1563 28.1448 40.9922C27.9807 40.8282 27.7581 40.736 27.5261 40.736Z" />
<path d="M27.5261 47.2815H11.2471C11.015 47.2815 10.7924 47.3737 10.6284 47.5378C10.4643 47.7019 10.3721 47.9244 10.3721 48.1565C10.3721 48.3886 10.4643 48.6111 10.6284 48.7752C10.7924 48.9393 11.015 49.0315 11.2471 49.0315H27.5261C27.7581 49.0315 27.9807 48.9393 28.1448 48.7752C28.3089 48.6111 28.4011 48.3886 28.4011 48.1565C28.4011 47.9244 28.3089 47.7019 28.1448 47.5378C27.9807 47.3737 27.7581 47.2815 27.5261 47.2815Z" />
<path d="M27.5261 53.8264H11.2471C11.015 53.8264 10.7924 53.9186 10.6284 54.0827C10.4643 54.2468 10.3721 54.4694 10.3721 54.7014C10.3721 54.9335 10.4643 55.156 10.6284 55.3201C10.7924 55.4842 11.015 55.5764 11.2471 55.5764H27.5261C27.7581 55.5764 27.9807 55.4842 28.1448 55.3201C28.3089 55.156 28.4011 54.9335 28.4011 54.7014C28.4011 54.4694 28.3089 54.2468 28.1448 54.0827C27.9807 53.9186 27.7581 53.8264 27.5261 53.8264Z" />
<path d="M60.0335 53.0735L55.4195 41.408C55.4455 41.3805 55.4735 41.3555 55.4985 41.3265C55.7791 41.0042 55.983 40.6225 56.095 40.2101C56.2069 39.7978 56.224 39.3654 56.145 38.9455C56.1043 38.7244 56.1326 38.4961 56.2261 38.2916C56.3196 38.0871 56.4737 37.9163 56.6675 37.8025C57.0356 37.5862 57.3503 37.2898 57.5883 36.9353C57.8263 36.5808 57.9814 36.1773 58.0422 35.7547C58.103 35.3321 58.0679 34.9012 57.9395 34.494C57.8111 34.0868 57.5927 33.7138 57.3005 33.4025C57.1467 33.2385 57.047 33.0313 57.0149 32.8087C56.9827 32.5862 57.0198 32.3592 57.121 32.1585C57.3144 31.7774 57.4194 31.3577 57.4282 30.9305C57.437 30.5033 57.3494 30.0795 57.172 29.6908C56.9945 29.3021 56.7317 28.9584 56.4031 28.6852C56.0745 28.4121 55.6886 28.2165 55.274 28.113C55.0559 28.0582 54.8599 27.9376 54.7126 27.7677C54.5653 27.5978 54.4738 27.3867 54.4505 27.163C54.4072 26.7379 54.2687 26.3281 54.0451 25.9639C53.8216 25.5998 53.5189 25.2907 53.1595 25.0597C52.8001 24.8286 52.3932 24.6816 51.9692 24.6294C51.5451 24.5773 51.1147 24.6214 50.71 24.7585C50.4969 24.8306 50.2667 24.8353 50.0508 24.7719C49.8349 24.7084 49.6438 24.58 49.5035 24.404C49.1547 23.9657 48.6837 23.6408 48.15 23.4705V7.58997C48.1482 6.03239 47.5286 4.53913 46.4272 3.43776C45.3259 2.33638 43.8326 1.71682 42.275 1.71497H17.715C17.5002 1.71693 17.2937 1.79812 17.135 1.94297C17.125 1.95197 17.113 1.95647 17.1035 1.96597L8.23103 10.66C3.94553 14.879 4.15403 14.6065 4.02553 14.8295C3.97961 14.9137 3.94466 15.0034 3.92153 15.0965C3.91075 15.152 3.90522 15.2084 3.90503 15.265V56.41C3.90675 57.9676 4.52627 59.4609 5.62768 60.5623C6.72908 61.6637 8.22241 62.2832 9.78003 62.285H42.275C43.8326 62.2831 45.3259 61.6635 46.4272 60.5622C47.5286 59.4608 48.1482 57.9675 48.15 56.41V47.0415L51.8215 56.322C51.886 56.485 51.998 56.6249 52.143 56.7235C52.288 56.8221 52.4592 56.8748 52.6345 56.875C52.6659 56.875 52.6973 56.8734 52.7285 56.87C52.9192 56.8498 53.0979 56.7676 53.2373 56.636C53.3767 56.5044 53.469 56.3306 53.5 56.1415L54.379 50.7755L58.689 54.089C58.8408 54.2059 59.0267 54.2697 59.2183 54.2707C59.4098 54.2717 59.5964 54.2098 59.7493 54.0944C59.9023 53.9791 60.0131 53.8167 60.0648 53.6323C60.1165 53.4478 60.1062 53.2515 60.0355 53.0735H60.0335ZM51.271 26.4145C51.4267 26.3619 51.5923 26.345 51.7553 26.3652C51.9184 26.3853 52.0749 26.442 52.2131 26.5309C52.3513 26.6198 52.4677 26.7387 52.5536 26.8788C52.6396 27.0188 52.6929 27.1765 52.7095 27.34C52.7701 27.9212 53.0079 28.4697 53.3907 28.9113C53.7735 29.3528 54.2828 29.666 54.8495 29.8085C55.0091 29.8483 55.1576 29.9236 55.2841 30.0287C55.4106 30.1338 55.5117 30.2661 55.58 30.4157C55.6483 30.5653 55.6821 30.7284 55.6787 30.8928C55.6753 31.0572 55.6349 31.2188 55.5605 31.3655C55.2971 31.8872 55.2004 32.4772 55.2836 33.0557C55.3668 33.6342 55.6258 34.1731 56.0255 34.5995C56.138 34.7192 56.2221 34.8628 56.2715 35.0194C56.3209 35.1761 56.3344 35.3419 56.3111 35.5045C56.2877 35.6672 56.228 35.8224 56.1364 35.9588C56.0448 36.0952 55.9237 36.2093 55.782 36.2925C55.2783 36.5889 54.8779 37.033 54.6351 37.5646C54.3923 38.0962 54.3188 38.6897 54.4245 39.2645C54.4545 39.4261 54.4478 39.5924 54.4047 39.751C54.3617 39.9096 54.2835 40.0565 54.1759 40.1808C54.0683 40.3051 53.9341 40.4035 53.7832 40.4688C53.6324 40.5341 53.4688 40.5646 53.3045 40.558C52.7199 40.5326 52.1417 40.6887 51.6493 41.005C51.157 41.3213 50.7745 41.7822 50.5545 42.3245C50.4924 42.4766 50.3968 42.6128 50.2749 42.7229C50.1529 42.833 50.0077 42.9142 49.85 42.9605C49.6923 43.0067 49.5263 43.0169 49.3641 42.9901C49.202 42.9634 49.048 42.9004 48.9135 42.806C48.4338 42.4731 47.8637 42.2947 47.2798 42.2947C46.6958 42.2947 46.1258 42.4731 45.646 42.806C45.5115 42.9004 45.3575 42.9634 45.1953 42.9901C45.0332 43.0169 44.867 43.0067 44.7093 42.9605C44.5516 42.9142 44.4064 42.833 44.2844 42.7229C44.1623 42.6128 44.0667 42.4766 44.0045 42.3245C43.7824 41.7837 43.3995 41.3241 42.9077 41.0081C42.4158 40.692 41.8387 40.5347 41.2545 40.5575C41.0898 40.567 40.9252 40.5379 40.7738 40.4725C40.6224 40.407 40.4884 40.307 40.3825 40.1805C40.2744 40.0566 40.1957 39.9098 40.1524 39.7512C40.1091 39.5925 40.1023 39.4261 40.1325 39.2645C40.2383 38.6897 40.1648 38.0962 39.922 37.5646C39.6791 37.033 39.2787 36.5889 38.775 36.2925C38.6336 36.2091 38.5127 36.0949 38.4214 35.9584C38.3301 35.8219 38.2707 35.6666 38.2477 35.504C38.2246 35.3414 38.2385 35.1757 38.2882 35.0192C38.338 34.8627 38.4223 34.7194 38.535 34.6C38.9349 34.1736 39.194 33.6346 39.2771 33.056C39.3603 32.4774 39.2636 31.8872 39 31.3655C38.9256 31.2189 38.8852 31.0574 38.8818 30.893C38.8784 30.7287 38.9121 30.5656 38.9804 30.4161C39.0486 30.2665 39.1497 30.1343 39.2761 30.0292C39.4026 29.9241 39.551 29.8488 39.7105 29.809C40.2773 29.6664 40.7865 29.3531 41.1692 28.9115C41.5519 28.4698 41.7896 27.9212 41.85 27.34C41.8667 27.1764 41.9201 27.0187 42.0061 26.8786C42.0922 26.7385 42.2087 26.6195 42.347 26.5306C42.4852 26.4417 42.6418 26.3851 42.805 26.365C42.9682 26.3449 43.1338 26.3618 43.2895 26.4145C43.8435 26.6009 44.4413 26.6126 45.0021 26.4478C45.5629 26.2831 46.0595 25.9499 46.4245 25.4935C46.5304 25.3703 46.6616 25.2715 46.8091 25.2038C46.9567 25.136 47.1172 25.101 47.2795 25.101C47.4419 25.101 47.6024 25.136 47.7499 25.2038C47.8975 25.2715 48.0287 25.3703 48.1345 25.4935C48.4997 25.9502 48.9965 26.2836 49.5576 26.4483C50.1187 26.6131 50.7169 26.6013 51.271 26.4145ZM40.6835 42.2645C41.178 42.3555 42.038 42.1375 42.3835 42.988C42.6252 43.5788 43.0584 44.0712 43.6137 44.3861C44.169 44.7009 44.814 44.8199 45.445 44.724L42.2755 52.734L41.6735 49.05C41.6491 48.9006 41.5864 48.7601 41.4916 48.6423C41.3967 48.5244 41.2728 48.4331 41.1321 48.3774C40.9914 48.3217 40.8387 48.3034 40.6888 48.3244C40.5389 48.3453 40.3971 48.4048 40.277 48.497L37.3195 50.771L40.6835 42.2645ZM10.019 11.358L16.841 4.67647V14.3915H6.92253L10.019 11.358ZM42.275 60.535H9.78003C8.68638 60.5338 7.63786 60.0988 6.86453 59.3255C6.0912 58.5521 5.65622 57.5036 5.65503 56.41V16.1425H17.716C17.9481 16.1425 18.1707 16.0503 18.3347 15.8862C18.4988 15.7221 18.591 15.4995 18.591 15.2675V3.46497H42.275C43.3687 3.46616 44.4172 3.90114 45.1905 4.67447C45.9639 5.4478 46.3988 6.49631 46.4 7.58997V23.4735C45.8704 23.6441 45.4029 23.9675 45.0565 24.403C44.9158 24.5782 44.7248 24.7061 44.5092 24.7695C44.2935 24.8328 44.0637 24.8286 43.8505 24.7575C43.4459 24.6205 43.0156 24.5764 42.5916 24.6286C42.1676 24.6807 41.7608 24.8277 41.4014 25.0586C41.042 25.2895 40.7392 25.5984 40.5156 25.9624C40.2919 26.3263 40.1531 26.736 40.1095 27.161C40.0858 27.3845 39.9941 27.5954 39.8469 27.7652C39.6996 27.9351 39.5039 28.0557 39.286 28.111C38.8715 28.2145 38.4856 28.4101 38.1571 28.6832C37.8286 28.9563 37.5659 29.3 37.3884 29.6887C37.211 30.0774 37.1235 30.501 37.1323 30.9282C37.1412 31.3553 37.2462 31.775 37.4395 32.156C37.5403 32.3569 37.5771 32.584 37.5449 32.8065C37.5127 33.029 37.4131 33.2363 37.2595 33.4005C36.9673 33.7118 36.7489 34.0849 36.6205 34.4922C36.4921 34.8994 36.4571 35.3304 36.518 35.753C36.5789 36.1756 36.7342 36.5791 36.9723 36.9336C37.2104 37.288 37.5253 37.5843 37.8935 37.8005C38.0872 37.9145 38.2412 38.0853 38.3346 38.2897C38.428 38.4942 38.4562 38.7224 38.4155 38.9435C38.3365 39.3634 38.3536 39.7958 38.4656 40.2081C38.5776 40.6205 38.7815 41.0022 39.062 41.3245C39.087 41.3535 39.1145 41.3785 39.1405 41.4055L34.5265 53.0715C34.4558 53.2495 34.4455 53.4458 34.4972 53.6303C34.5489 53.8147 34.6598 53.9771 34.8127 54.0924C34.9657 54.2078 35.1522 54.2697 35.3438 54.2687C35.5354 54.2677 35.7213 54.2039 35.873 54.087L40.183 50.774L41.0615 56.139C41.0924 56.3279 41.1843 56.5016 41.3233 56.6332C41.4623 56.7649 41.6407 56.8474 41.831 56.868C41.8624 56.8714 41.894 56.873 41.9255 56.873C42.1008 56.8727 42.272 56.8199 42.4169 56.7213C42.5619 56.6227 42.6739 56.4829 42.7385 56.32L46.4 47.0675V56.41C46.3988 57.5036 45.9639 58.5521 45.1905 59.3255C44.4172 60.0988 43.3687 60.5338 42.275 60.535ZM54.283 48.496C54.1632 48.4038 54.0216 48.3443 53.8719 48.3232C53.7222 48.3021 53.5697 48.3201 53.429 48.3755C53.2884 48.4309 53.1645 48.5217 53.0694 48.6392C52.9744 48.7567 52.9113 48.8969 52.8865 49.046L52.283 52.7305L49.1145 44.7235C49.5258 44.786 49.9457 44.7571 50.3445 44.639C52.3795 44.042 51.8805 42.2285 53.233 42.3065C53.448 42.3142 53.6631 42.2982 53.8745 42.259L57.2405 50.77L54.283 48.496Z" />
<path d="M41.7119 34.2059C41.7119 35.3072 42.0385 36.3837 42.6503 37.2994C43.2621 38.215 44.1317 38.9287 45.1491 39.3501C46.1666 39.7715 47.2861 39.8818 48.3662 39.667C49.4463 39.4521 50.4384 38.9218 51.2171 38.1431C51.9958 37.3644 52.5261 36.3723 52.7409 35.2922C52.9558 34.2121 52.8455 33.0926 52.4241 32.0752C52.0026 31.0577 51.289 30.1881 50.3733 29.5763C49.4577 28.9645 48.3812 28.6379 47.2799 28.6379C45.8037 28.6395 44.3884 29.2267 43.3445 30.2705C42.3006 31.3144 41.7135 32.7297 41.7119 34.2059ZM51.0979 34.2059C51.0979 34.9611 50.874 35.6992 50.4545 36.3271C50.0349 36.955 49.4386 37.4443 48.741 37.7333C48.0433 38.0223 47.2757 38.0979 46.5351 37.9506C45.7944 37.8033 45.1141 37.4396 44.5802 36.9057C44.0462 36.3717 43.6826 35.6914 43.5353 34.9508C43.388 34.2102 43.4636 33.4425 43.7525 32.7449C44.0415 32.0472 44.5309 31.4509 45.1587 31.0314C45.7866 30.6119 46.5248 30.3879 47.2799 30.3879C48.2925 30.3886 49.2634 30.791 49.9796 31.5068C50.6958 32.2226 51.0987 33.1934 51.0999 34.2059H51.0979Z" />
</symbol>

<symbol id="i-quality" viewBox="0 0 65 65" >
<g clip-path="url(#clip0_179_156)">
<path d="M29.9634 49.9062C29.9634 48.6733 29.4053 47.5689 28.5289 46.8306C29.4053 46.0923 29.9634 44.9877 29.9634 43.7549C29.9634 42.5222 29.4053 41.4176 28.5289 40.6793C29.4052 39.9411 29.9633 38.8366 29.9633 37.6038C29.9633 35.3863 28.1593 33.5823 25.9418 33.5823H15.983V26.7551C15.983 24.3526 14.0285 22.3982 11.6262 22.3982C9.22378 22.3982 7.26916 24.3527 7.26916 26.7551V28.3278C7.26916 31.2252 4.91204 33.5822 2.01479 33.5822H1.61629C1.09391 33.5822 0.67041 34.0057 0.67041 34.5281C0.67041 35.0504 1.09391 35.4739 1.61629 35.4739H2.01466C5.95504 35.4739 9.16066 32.2683 9.16066 28.3279V26.7552C9.16066 25.3958 10.2667 24.2899 11.626 24.2899C12.9854 24.2899 14.0913 25.3959 14.0913 26.7552V34.5282C14.0913 35.0506 14.5148 35.4741 15.0372 35.4741H25.9418C27.1163 35.4741 28.0717 36.4296 28.0717 37.6039C28.0717 38.7783 27.1163 39.7338 25.9418 39.7338H21.6358C21.1134 39.7338 20.6899 40.1573 20.6899 40.6796C20.6899 41.2019 21.1134 41.6254 21.6358 41.6254H25.9418C27.1163 41.6254 28.0717 42.5809 28.0717 43.7553C28.0717 44.9297 27.1163 45.8852 25.9418 45.8852H21.6358C21.1134 45.8852 20.6899 46.3087 20.6899 46.8311C20.6899 47.3534 21.1134 47.7768 21.6358 47.7768H25.9418C27.1163 47.7768 28.0717 48.7323 28.0717 49.9067C28.0717 51.0811 27.1163 52.0366 25.9418 52.0366H21.6358C21.1134 52.0366 20.6899 52.4601 20.6899 52.9824C20.6899 53.5048 21.1134 53.9283 21.6358 53.9283H25.9418C27.1163 53.9283 28.0717 54.8837 28.0717 56.0582C28.0717 57.2327 27.1163 58.1881 25.9418 58.1881H10.371C9.84866 58.1881 9.42529 58.6116 9.42529 59.1338C9.42529 59.6562 9.84878 60.0797 10.371 60.0797H25.942C28.1594 60.0797 29.9635 58.2757 29.9635 56.0582C29.9635 54.8253 29.4054 53.7208 28.529 52.9826C29.4053 52.2436 29.9634 51.1391 29.9634 49.9062Z" />
<path d="M7.34452 58.1874H1.3929C0.870521 58.1874 0.447021 58.6109 0.447021 59.1331C0.447021 59.6555 0.870521 60.079 1.3929 60.079H7.34452C7.8669 60.079 8.29027 59.6555 8.29027 59.1331C8.29027 58.6109 7.8669 58.1874 7.34452 58.1874Z" />
<path d="M63.2774 16.3052H62.879C59.9817 16.3052 57.6247 13.9481 57.6247 11.0508V9.47809C57.6247 7.07559 55.6702 5.12122 53.2677 5.12122C50.8652 5.12122 48.9109 7.07572 48.9109 9.47809V16.2772H38.9522C36.7348 16.2772 34.9307 18.0813 34.9307 20.2987C34.9307 21.5392 35.4955 22.6501 36.3813 23.3883C35.4955 24.1266 34.9307 25.2375 34.9307 26.478C34.9307 27.7185 35.4955 28.8293 36.3813 29.5676C35.4955 30.3058 34.9307 31.4167 34.9307 32.6572C34.9307 33.8977 35.4955 35.0086 36.3813 35.7468C35.4955 36.4851 34.9307 37.596 34.9307 38.8365C34.9307 41.0538 36.7347 42.858 38.9522 42.858H44.5992C46.8167 42.858 48.6207 41.054 48.6207 38.8365C48.6207 37.596 48.0558 36.4851 47.17 35.7468C48.0558 35.0086 48.6207 33.8977 48.6207 32.6572C48.6207 31.4167 48.0558 30.3058 47.17 29.5676C48.0558 28.8293 48.6207 27.7185 48.6207 26.478C48.6207 25.2375 48.0558 24.1266 47.17 23.3883C48.0558 22.6501 48.6207 21.5393 48.6207 20.2988C48.6207 19.529 48.4028 18.8091 48.0259 18.197H49.8567C50.379 18.197 50.8025 17.7735 50.8025 17.2512V9.47809C50.8025 8.11872 51.9085 7.01284 53.2678 7.01284C54.6273 7.01284 55.7332 8.11884 55.7332 9.47809V11.0508C55.7332 14.9912 58.9388 18.1968 62.8792 18.1968H63.2775C63.7999 18.1968 64.2233 17.7733 64.2233 17.251C64.2233 16.7286 63.7997 16.3052 63.2774 16.3052ZM44.5989 40.9665H38.9519C37.7774 40.9665 36.822 40.0111 36.822 38.8366C36.822 37.6621 37.7774 36.7067 38.9519 36.7067H44.5989C45.7734 36.7067 46.7288 37.6622 46.7288 38.8366C46.7288 40.011 45.7733 40.9665 44.5989 40.9665ZM44.5989 34.7872H38.9519C37.7774 34.7872 36.822 33.8318 36.822 32.6573C36.822 31.4828 37.7774 30.5275 38.9519 30.5275H44.5989C45.7734 30.5275 46.7288 31.483 46.7288 32.6573C46.7288 33.8317 45.7733 34.7872 44.5989 34.7872ZM42.9632 24.3482H44.5989C45.7734 24.3482 46.7288 25.3037 46.7288 26.4781C46.7288 27.6525 45.7733 28.608 44.5989 28.608H38.9519C37.7774 28.608 36.822 27.6526 36.822 26.4781C36.822 25.3036 37.7774 24.3482 38.9519 24.3482H39.9365C40.4589 24.3482 40.8823 23.9247 40.8823 23.4023C40.8823 22.88 40.4588 22.4566 39.9365 22.4566H39.1768C39.1047 22.439 39.0297 22.4286 38.9519 22.4286C37.7774 22.4286 36.822 21.4732 36.822 20.2987C36.822 19.1242 37.7775 18.1688 38.9519 18.1688H44.9274C45.946 18.3276 46.7288 19.2363 46.7288 20.2987C46.7288 21.4732 45.7733 22.4286 44.5989 22.4286C44.5214 22.4286 44.4463 22.439 44.374 22.4566H42.9632C42.4408 22.4566 42.0173 22.8801 42.0173 23.4025C42.0174 23.9247 42.4409 24.3482 42.9632 24.3482Z" />
<path d="M63.5012 40.9105C63.501 40.9105 63.5006 40.9105 63.5002 40.9105L49.6855 40.9256C49.1631 40.9261 48.7401 41.3501 48.7407 41.8725C48.7412 42.3946 49.1646 42.8173 49.6866 42.8173C49.6868 42.8173 49.6873 42.8173 49.6876 42.8173L63.5023 42.8021C64.0247 42.8016 64.4476 42.3776 64.4471 41.8553C64.4465 41.3333 64.0231 40.9105 63.5012 40.9105Z" />
<path d="M58.828 32.5218C51.8621 30.1238 51.4091 24.0352 51.3932 23.7773C51.3631 23.2572 50.9172 22.8576 50.3975 22.8876C49.8759 22.9161 49.4761 23.3618 49.5046 23.8834C49.5089 23.9624 49.6231 25.8434 50.7577 28.0616C51.8006 30.1004 53.9404 32.8398 58.2121 34.3103C58.3141 34.3454 58.4179 34.3622 58.5201 34.3622C58.9126 34.3622 59.2794 34.1159 59.4144 33.7239C59.5845 33.2299 59.322 32.6917 58.828 32.5218Z" />
</g>
<defs>
<clipPath id="clip0_179_156">
<rect width="64" height="64" fill="white" transform="translate(0.447021 0.600098)"/>
</clipPath>
</defs>
</symbol>

<symbol id="i-professional" viewBox="0 0 65 65">
<g clip-path="url(#clip0_179_179)">
<path d="M21.7803 0.600098C12.9437 0.600098 5.78027 7.76356 5.78027 16.6001V28.3334C5.78494 32.4552 9.12521 35.7954 13.2469 35.8001H14.3136V33.6668H13.2469C10.3029 33.6633 7.91707 31.2774 7.91361 28.3334V16.6001C7.91361 8.9417 14.1219 2.73343 21.7803 2.73343C29.4387 2.73343 35.6469 8.9417 35.6469 16.6001V28.3334C35.6435 31.2774 33.2576 33.6633 30.3136 33.6668H29.2469V35.8001H30.3136C34.4353 35.7954 37.7756 32.4552 37.7803 28.3334V16.6001C37.7803 7.76356 30.6168 0.600098 21.7803 0.600098Z" />
<path d="M9.23747 50.8711L10.0172 49.6433L8.21561 48.4999L7.43587 49.7287C5.07761 53.4449 5.25267 58.23 7.87641 61.7639V64.6001H10.0097V61.4001C10.0099 61.1579 9.92747 60.9227 9.77614 60.7335C7.50841 57.8985 7.29201 53.9361 9.23747 50.8711Z" />
<path d="M59.1136 0.600098H45.2469C42.3029 0.603564 39.917 2.98943 39.9136 5.93343V16.6001C39.917 19.5441 42.3029 21.93 45.2469 21.9334H47.3802V26.2001C47.3801 26.6314 47.6398 27.0205 48.0384 27.1857C48.1678 27.2397 48.3066 27.2672 48.4469 27.2668C48.7298 27.2668 49.001 27.1542 49.201 26.9542L54.2218 21.9334H59.1136C62.0576 21.93 64.4434 19.5441 64.4469 16.6001V5.93343C64.4434 2.98943 62.0576 0.603564 59.1136 0.600098ZM62.3136 16.6001C62.3136 18.3674 60.8809 19.8001 59.1136 19.8001H53.7802C53.4973 19.8001 53.2261 19.9126 53.0261 20.1126L49.5136 23.6252V20.8668C49.5136 20.2777 49.036 19.8001 48.4469 19.8001H45.2469C43.4796 19.8001 42.0469 18.3674 42.0469 16.6001V5.93343C42.0469 4.1661 43.4796 2.73343 45.2469 2.73343H59.1136C60.8809 2.73343 62.3136 4.1661 62.3136 5.93343V16.6001Z" />
<path d="M52.7137 5.93347H45.2471V8.06681H52.7137V5.93347Z" />
<path d="M59.1136 5.93347H54.8469V8.06681H59.1136V5.93347Z" />
<path d="M59.1137 10.2001H45.2471V12.3334H59.1137V10.2001Z" />
<path d="M52.7137 14.4668H45.2471V16.6001H52.7137V14.4668Z" />
<path d="M36.1248 49.7287L35.3451 48.4999L33.5435 49.6433L34.3232 50.8721C36.2688 53.9368 36.0524 57.8989 33.7845 60.7335C33.6332 60.9227 33.5508 61.1579 33.5509 61.4001V64.6001H35.6843V61.7639C38.308 58.23 38.4831 53.4449 36.1248 49.7287Z" />
<path d="M63.3804 36.8667H53.7804C49.7782 36.8714 46.4916 40.0306 46.3286 44.0294L43.1137 49.8171V45.4001C43.109 41.2783 39.7688 37.9381 35.647 37.9334H31.7484L31.7196 37.911L31.7004 37.9334H29.247C28.0688 37.9334 27.1137 36.9783 27.1137 35.8001V33.2902C30.4096 31.3873 32.442 27.8725 32.447 24.0667V15.5334C32.4454 13.7661 32.0057 12.0267 31.167 10.471C30.8984 9.97608 30.2912 9.77515 29.7804 10.0123L11.726 18.5073C11.3521 18.6833 11.1136 19.0594 11.1137 19.4726V24.0667C11.1188 27.8725 13.1512 31.3873 16.447 33.2902V35.8001C16.447 36.9783 15.492 37.9334 14.3137 37.9334H7.91369C3.79195 37.9381 0.451688 41.2783 0.447021 45.4001V64.6001H2.58035V45.4001C2.58382 42.4561 4.96969 40.0702 7.91369 40.0667H11.3078L20.9132 53.4875C21.1105 53.7634 21.4273 53.9289 21.7665 53.9334H21.7804C22.1161 53.9334 22.4322 53.7753 22.6337 53.5067L32.767 40.0667H35.647C38.591 40.0702 40.9769 42.4561 40.9804 45.4001V53.9334C40.9809 54.5225 41.4589 54.9997 42.048 54.9991C42.4349 54.9987 42.7913 54.789 42.9793 54.4507L48.0076 45.4001H54.1228L43.7228 64.6001H46.1494L56.5537 45.4001H56.9804C61.1021 45.3954 64.4424 42.0551 64.447 37.9334C64.447 37.3443 63.9694 36.8667 63.3804 36.8667ZM13.247 24.0667V20.1499L29.7174 12.3995C30.1114 13.3974 30.3137 14.4606 30.3137 15.5334V24.0667C30.3137 28.7795 26.4932 32.6001 21.7804 32.6001C17.0676 32.6001 13.247 28.7795 13.247 24.0667ZM21.8028 51.0662L18.511 46.4667H25.2694L21.8028 51.0662ZM26.8833 44.3334H16.9804L13.9265 40.0667H14.3137C16.6701 40.0667 18.5804 38.1565 18.5804 35.8001V34.2417C20.6633 34.8973 22.8974 34.8973 24.9804 34.2417V35.8001C24.9804 38.1565 26.8906 40.0667 29.247 40.0667H30.1004L26.8833 44.3334ZM56.9804 43.2667H48.5537C49.0637 40.785 51.2468 39.0029 53.7804 39.0001H62.207C61.697 41.4818 59.514 43.2639 56.9804 43.2667Z" />
</g>
<defs>
<clipPath id="clip0_179_179">
<rect width="64" height="64" fill="white" transform="translate(0.447021 0.600098)"/>
</clipPath>
</defs>
</symbol>

<symbol id="i-cooperation" viewBox="0 0 65 65">
<g clip-path="url(#clip0_179_172)">
<path d="M32.3353 8.7326C33.0305 8.7326 33.5942 8.16897 33.5942 7.47372V1.85897C33.5942 1.16372 33.0305 0.600098 32.3353 0.600098C31.64 0.600098 31.0764 1.16372 31.0764 1.85897V7.47372C31.0765 8.16897 31.6402 8.7326 32.3353 8.7326Z" />
<path d="M63.1071 43.8482L60.8832 41.6306C60.0921 40.8405 59.0377 40.4052 57.9142 40.4052C57.1958 40.4052 56.5062 40.584 55.8951 40.9188L51.7043 36.7331L51.9085 36.5292C53.6086 34.8257 53.608 32.0576 51.9083 30.3598C51.301 29.7513 50.5431 29.3456 49.717 29.1748C49.8307 28.7822 49.8906 28.371 49.8906 27.9501C49.8906 26.7807 49.4363 25.6842 48.6141 24.8653C48.0066 24.2568 47.2488 23.8511 46.4227 23.6803C46.5365 23.2877 46.5963 22.8766 46.5963 22.4556C46.5963 21.2861 46.1421 20.1897 45.3185 19.3696C44.6965 18.7483 43.9318 18.3551 43.129 18.1877C43.5585 16.7068 43.1915 15.0407 42.0265 13.8737C41.0567 12.9081 39.7408 12.4931 38.4727 12.6276L30.1683 11.0557C28.9018 10.8155 27.3202 10.6566 26.3218 11.5672C26.2588 11.6247 26.1946 11.6908 26.1313 11.7645C24.5833 11.2002 22.7778 11.5362 21.5382 12.7745C20.7158 13.5958 20.2628 14.6918 20.2628 15.8606C20.2628 16.2816 20.3225 16.6927 20.4361 17.0855C19.6108 17.2561 18.854 17.6613 18.2486 18.2678C17.4246 19.0885 16.9702 20.1832 16.9693 21.3506C16.969 21.7726 17.0288 22.1851 17.1431 22.5788C16.3175 22.7491 15.5601 23.1536 14.9528 23.7601C14.1288 24.5832 13.6751 25.6798 13.6751 26.848C13.6751 27.7427 13.9422 28.5951 14.4372 29.3151C13.8122 29.527 13.2397 29.8796 12.7603 30.3585C11.0591 32.0576 11.0585 34.8258 12.7615 36.5318L12.9648 36.7343L8.77359 40.918C7.21596 40.1846 5.29684 40.4593 4.01146 41.7431L1.78621 43.9621C0.994713 44.7526 0.558963 45.8071 0.558838 46.9312C0.558838 48.0555 0.994713 49.1101 1.78621 49.9007L4.56334 52.6745C5.05521 53.1658 5.85234 53.1653 6.34359 52.6735C6.83496 52.1816 6.83446 51.3845 6.34259 50.8932L3.56546 48.1195C3.25021 47.8046 3.07659 47.3826 3.07659 46.9313C3.07659 46.4802 3.25021 46.0583 3.56471 45.7442L5.79009 43.5251C6.34609 42.9697 7.19709 42.887 7.84334 43.2733C7.88884 43.3417 7.94146 43.4067 8.00171 43.4671C8.10959 43.5752 8.23271 43.6581 8.36346 43.7187L21.1251 56.4616C21.1857 56.5937 21.269 56.7181 21.3776 56.8268C21.4833 56.9327 21.604 57.0146 21.732 57.0748C22.0018 57.38 22.151 57.7697 22.151 58.1855C22.151 58.6367 21.9773 59.0586 21.6621 59.3735L19.439 61.594C18.7821 62.248 17.7136 62.2478 17.0587 61.596L14.2816 58.8186C13.79 58.327 12.993 58.327 12.5013 58.8186C12.0097 59.3102 12.0097 60.1072 12.5013 60.5988L15.2805 63.3782C16.0985 64.1928 17.1727 64.6 18.2475 64.6C19.3225 64.6 20.398 64.1922 21.217 63.3768L23.4415 61.155C24.233 60.3643 24.6688 59.3098 24.6688 58.1855C24.6688 57.3831 24.4457 56.6168 24.0308 55.9561L28.7478 51.2448C28.7528 51.2397 28.7578 51.2346 28.763 51.2295C29.3031 50.6711 30.8072 50.7756 32.2618 50.8766C33.2953 50.9485 34.4476 51.0283 35.5733 50.8986L40.7388 56.058C40.4042 56.6681 40.2256 57.3568 40.2256 58.0741C40.2256 59.1972 40.6615 60.2511 41.453 61.0417L43.6776 63.2636C44.4686 64.0537 45.523 64.489 46.6465 64.489C47.7698 64.489 48.8242 64.0538 49.6153 63.2636L63.108 49.7873C63.8995 48.9968 64.3353 47.9423 64.3353 46.8181C64.3352 45.694 63.8993 44.6395 63.1071 43.8482ZM29.6996 13.5295L35.1605 14.5631L31.8918 17.8305C31.3862 17.5875 30.6932 17.1342 29.933 16.407C28.8923 15.4115 28.148 14.2621 28.0802 13.5452C28.0801 13.5448 28.0801 13.5445 28.0801 13.5441C28.0801 13.544 28.08 13.5438 28.08 13.5437C28.0751 13.4922 28.0738 13.4511 28.0745 13.4197C28.2391 13.3797 28.6763 13.3353 29.6996 13.5295ZM23.3173 14.5558C23.9551 13.9187 24.9458 13.8452 25.6665 14.3332C26.0748 16.0455 27.5355 17.5973 28.1926 18.2261C28.6796 18.6921 30.2422 20.0892 31.8195 20.4732C32.0328 20.7791 32.149 21.1437 32.149 21.5285C32.149 22.0241 31.9583 22.4875 31.611 22.8345C31.2646 23.1815 30.8005 23.3725 30.304 23.3725C29.8073 23.3725 29.3432 23.1815 28.9952 22.8328L28.9951 22.8327L28.9945 22.8321L23.3172 17.1651C22.9711 16.8195 22.7805 16.3561 22.7805 15.8606C22.7806 15.365 22.9712 14.9016 23.3173 14.5558ZM20.0278 20.0492C20.3742 19.7023 20.8378 19.5112 21.3336 19.5112C21.83 19.5112 22.2951 19.7027 22.6437 20.051L27.2152 24.6133C27.9351 25.3343 27.9351 26.5076 27.2177 27.2261C26.8695 27.573 26.4037 27.764 25.9063 27.764C25.409 27.764 24.9432 27.573 24.5965 27.2276L24.5963 27.2275L21.1282 23.7601C21.1228 23.7547 21.117 23.7497 21.1115 23.7442L20.0265 22.6597C19.6783 22.312 19.4867 21.8477 19.4871 21.3525C19.4876 20.8588 19.6786 20.397 20.0278 20.0492ZM16.7321 25.5415C17.0787 25.1953 17.5433 25.0047 18.0406 25.0047C18.5337 25.0047 18.9943 25.1926 19.3395 25.5327L22.8182 29.0098C23.1651 29.3553 23.3562 29.8182 23.3562 30.3132C23.3562 30.8081 23.1651 31.271 22.8168 31.6178C22.4703 31.9638 22.0062 32.1545 21.5098 32.1545C21.0127 32.1545 20.5471 31.9633 20.2001 31.6178L18.939 30.3582C18.9387 30.3578 18.9383 30.3576 18.9381 30.3573L16.7322 28.1541C16.3845 27.8067 16.193 27.3427 16.193 26.8477C16.193 26.3528 16.3845 25.8887 16.7321 25.5415ZM14.5396 32.1397C14.8877 31.792 15.353 31.6005 15.8496 31.6005C16.3461 31.6005 16.8112 31.7918 17.1592 32.1393L18.4221 33.4007C18.7691 33.7462 18.9601 34.2091 18.9601 34.7041C18.9601 35.1991 18.769 35.6618 18.4195 36.0101C18.0731 36.357 17.609 36.5481 17.1125 36.5481C16.6158 36.5481 16.1517 36.3571 15.8028 36.0076L15.6447 35.8501C15.6426 35.848 15.641 35.8457 15.639 35.8437C15.6366 35.8415 15.6341 35.8395 15.6317 35.8372L14.5408 34.7506C13.821 34.0292 13.8203 32.8581 14.5396 32.1397ZM40.1938 46.447C39.7025 45.955 38.9053 45.9546 38.4136 46.4458L37.2936 47.5645C36.2293 48.6287 34.301 48.4947 32.4361 48.3653C30.411 48.2246 28.3168 48.0793 26.9617 49.4706L22.3248 54.1018L10.7295 42.5235L14.833 38.4273C15.5112 38.8431 16.2938 39.066 17.1127 39.066C18.2826 39.066 19.3796 38.6125 20.199 37.7916C21.0238 36.9701 21.4782 35.8737 21.4782 34.7042C21.4782 34.6933 21.4775 34.6826 21.4775 34.6717C21.4883 34.6718 21.4992 34.6725 21.5101 34.6725C22.6783 34.6725 23.7745 34.2203 24.595 33.4008C25.4198 32.5793 25.8742 31.4828 25.8742 30.3135C25.8742 30.3026 25.8735 30.2918 25.8735 30.281C25.8845 30.281 25.8955 30.2817 25.9066 30.2817C27.0745 30.2817 28.1712 29.8301 28.9972 29.0075C29.8547 28.1486 30.2788 27.0178 30.2707 25.8895C30.282 25.8896 30.2932 25.8902 30.3045 25.8902C31.4743 25.8901 32.5712 25.4367 33.3918 24.6146C34.2142 23.7932 34.6672 22.6972 34.6672 21.5285C34.6672 20.7111 34.445 19.9297 34.0306 19.2528L37.6272 15.6577C37.8952 15.3908 38.2257 15.2233 38.5721 15.1542C38.6096 15.1502 38.6466 15.1442 38.6832 15.137C39.239 15.0603 39.8226 15.2318 40.2476 15.6551C40.9675 16.3762 40.9675 17.5495 40.2502 18.268L39.1548 19.3588C39.1512 19.3625 39.1473 19.3657 39.1437 19.3693L37.8821 20.6288C37.3901 21.1201 37.3896 21.9172 37.881 22.4091C38.3725 22.9011 39.1695 22.9015 39.6612 22.4102L40.761 21.312C40.7612 21.3117 40.7615 21.3115 40.7617 21.3112L40.928 21.1456C41.6498 20.4303 42.8193 20.4318 43.5405 21.152C43.8875 21.4975 44.0786 21.9603 44.0786 22.4553C44.0786 22.9502 43.8875 23.4131 43.5377 23.7613L42.4361 24.8652C42.436 24.8653 42.4358 24.8655 42.4357 24.8657L41.1742 26.1221C40.6816 26.6127 40.68 27.4098 41.1706 27.9023C41.6612 28.395 42.4582 28.3965 42.9508 27.906L44.2181 26.6438C44.5645 26.2968 45.0286 26.1058 45.5251 26.1058C46.0217 26.1058 46.486 26.2968 46.8348 26.6463C47.1818 26.992 47.3728 27.4548 47.3728 27.9498C47.3728 28.4447 47.1818 28.9076 46.8328 29.2551L44.6366 31.4522C44.1451 31.944 44.1452 32.741 44.6368 33.2325C44.8827 33.4782 45.2047 33.601 45.5268 33.601C45.8491 33.601 46.1713 33.478 46.4171 33.2321L47.4935 32.1553C47.4996 32.1495 47.5062 32.1443 47.5123 32.1382C47.8587 31.7912 48.3228 31.6002 48.8193 31.6002C49.316 31.6002 49.7801 31.7912 50.1277 32.1395C50.8468 32.8578 50.8462 34.0291 50.1277 34.7488L49.0333 35.842C49.033 35.8423 49.0325 35.8427 49.0321 35.8431C49.0317 35.8435 49.0313 35.844 49.031 35.8443L47.294 37.5792C46.8021 38.0706 46.8016 38.8677 47.2928 39.3596C47.5387 39.6057 47.8612 39.7288 48.1836 39.7288C48.5055 39.7288 48.8275 39.6061 49.0732 39.3607L49.9228 38.5121L53.995 42.5795L42.4006 54.1597L38.2463 50.0105C38.536 49.8242 38.8131 49.6052 39.0732 49.3451L40.1926 48.2271C40.6847 47.736 40.6852 46.9388 40.1938 46.447ZM61.3286 48.006L47.836 61.4822C47.5203 61.7975 47.0978 61.9711 46.6463 61.9711C46.1948 61.9711 45.7723 61.7975 45.4566 61.4821L43.232 59.2602C42.9167 58.9455 42.7431 58.5242 42.7431 58.0741C42.7431 57.6241 42.9167 57.2028 43.232 56.888L56.7246 43.4117C57.0403 43.0963 57.4627 42.9227 57.9143 42.9227C58.3658 42.9227 58.7883 43.0963 59.1048 43.4125L61.3287 45.6301C61.644 45.945 61.8176 46.3667 61.8176 46.818C61.8175 47.2693 61.6438 47.6912 61.3286 48.006Z" />
<path d="M15.6192 7.67138C15.8649 7.91663 16.1867 8.03913 16.5084 8.03913C16.8309 8.03913 17.1536 7.91588 17.3994 7.6695C17.8906 7.17738 17.8898 6.38038 17.3977 5.88925L12.8104 1.31113C12.3184 0.820003 11.5213 0.820628 11.0302 1.31288C10.5391 1.805 10.5398 2.602 11.0319 3.09313L15.6192 7.67138Z" />
<path d="M48.1622 8.03908C48.484 8.03908 48.806 7.91633 49.0518 7.67096L53.6355 3.09271C54.1274 2.60146 54.1279 1.80433 53.6365 1.31246C53.1453 0.820581 52.3483 0.820081 51.8563 1.31146L47.2725 5.88971C46.7807 6.38096 46.7802 7.17808 47.2715 7.66996C47.5174 7.91608 47.8398 8.03908 48.1622 8.03908Z" />
<path d="M8.29937 54.7506C7.812 55.2464 7.81875 56.0435 8.31462 56.5309L8.31825 56.5344C8.56287 56.7749 8.8805 56.8946 9.198 56.8946C9.52387 56.8946 9.84975 56.7685 10.0966 56.5174C10.584 56.0216 10.5754 55.2227 10.0796 54.7354C9.584 54.248 8.787 54.2549 8.29937 54.7506Z" />
<path d="M43.2728 44.6335C43.4643 44.6335 43.6586 44.5899 43.8409 44.498C44.4617 44.1849 44.7111 43.4279 44.3981 42.8071C44.0849 42.1864 43.3278 41.9369 42.7072 42.25L42.7002 42.2535C42.0794 42.5666 41.8336 43.3219 42.1466 43.9426C42.3676 44.3811 42.8121 44.6335 43.2728 44.6335Z" />
</g>
<defs>
<clipPath id="clip0_179_172">
<rect width="64" height="64" fill="white" transform="translate(0.447021 0.600098)"/>
</clipPath>
</defs>
</symbol>

<symbol id="i-price" viewBox="0 0 65 65">
<g clip-path="url(#clip0_179_207)">
<path d="M53.2845 52.0102C51.5202 52.0102 50.0845 50.5745 50.0845 48.8102C50.0845 47.046 51.5202 45.6102 53.2845 45.6102C55.0487 45.6102 56.4845 47.046 56.4845 48.8102C56.4845 50.5745 55.0498 52.0102 53.2845 52.0102ZM53.2845 47.7436C52.6967 47.7436 52.2178 48.2214 52.2178 48.8102C52.2178 49.399 52.6967 49.8769 53.2845 49.8769C53.8722 49.8769 54.3511 49.399 54.3511 48.8102C54.3511 48.2225 53.8733 47.7436 53.2845 47.7436Z" />
<path d="M44.1431 20.9244C42.3788 20.9244 40.9431 19.4887 40.9431 17.7244C40.9431 15.9601 42.3788 14.5244 44.1431 14.5244C45.9074 14.5244 47.3431 15.9601 47.3431 17.7244C47.3431 19.4897 45.9084 20.9244 44.1431 20.9244ZM44.1431 16.6588C43.5554 16.6588 43.0764 17.1367 43.0764 17.7255C43.0764 18.3143 43.5554 18.7921 44.1431 18.7921C44.7308 18.7921 45.2098 18.3143 45.2098 17.7255C45.2098 17.1367 44.7319 16.6588 44.1431 16.6588Z" />
<path d="M60.9771 24.7964H57.3536L61.7953 16.7516C62.9281 14.7004 62.1377 12.0572 60.0886 10.9414L42.0641 1.14303C39.9275 -0.0175019 37.4155 0.832632 36.3137 2.2865C36.2817 2.3281 36.255 2.37077 36.2294 2.41557L23.8657 24.7964H3.64699C3.05819 24.7964 2.58032 25.2732 2.58032 25.863V63.5334C2.58032 64.1233 3.05819 64.6001 3.64699 64.6001H60.9761C61.5648 64.6001 62.0427 64.1233 62.0427 63.5334V25.863C62.0438 25.2732 61.5659 24.7964 60.9771 24.7964ZM38.0555 3.52276C38.6401 2.81663 39.983 2.43903 41.0443 3.01716L46.5025 5.98463L35.5691 8.02623L38.0555 3.52276ZM34.1217 10.647C34.1313 10.6449 34.1398 10.647 34.1494 10.646L49.4785 7.60383L59.0678 12.8166C60.0907 13.3745 60.4929 14.694 59.9254 15.7212L51.6982 30.6214H43.8262V30.423C43.8262 27.2252 41.2235 24.6236 38.0246 24.6236H37.6011C34.4022 24.6236 31.7995 27.2252 31.7995 30.423V30.6214H23.0902L34.1217 10.647ZM41.6939 30.423V30.6214H33.9361V30.423C33.9361 28.4017 35.5809 26.7569 37.6033 26.7569H38.0267C40.0491 26.7569 41.6939 28.4017 41.6939 30.423ZM4.71366 26.9297H22.687L20.6475 30.6214H4.71366V26.9297ZM59.9105 54.0241H50.2347C48.5345 54.0241 47.0977 52.9926 47.0977 51.7724V45.991C47.0977 44.7718 48.5345 43.7404 50.2347 43.7404H59.9105V54.0241ZM59.9105 41.607H50.2347C47.3281 41.607 44.9643 43.574 44.9643 45.991V51.7724C44.9643 54.1894 47.3291 56.1574 50.2347 56.1574H59.9105V62.4668H4.71366V32.7537H59.9094V41.607H59.9105ZM59.9105 30.6214H54.1377L56.1761 26.9297H59.9105V30.6214Z" />
</g>
<defs>
<clipPath id="clip0_179_207">
<rect width="64" height="64" fill="white" transform="translate(0.447021 0.600098)"/>
</clipPath>
</defs>
</symbol>

<symbol id="i-more-arrow" viewBox="0 0 24 14">
<path d="M9.28549 6.0125H20.0686L16.7738 2.56789C16.3245 2.11858 16.3245 1.36976 16.7738 0.920453C17.2231 0.471149 17.9719 0.62093 18.4212 1.07023L23.663 6.31206C24.1123 6.76137 24.1123 7.51019 23.663 7.9595L18.4212 13.0515C18.2715 13.2013 17.9719 13.351 17.6724 13.351C17.3729 13.351 17.0734 13.2012 16.9236 13.0515C16.4743 12.6022 16.4743 11.8534 16.9236 11.4041L20.0687 8.25898H9.28553C8.68648 8.25898 8.0874 7.80968 8.0874 7.06085C8.0874 6.31202 8.6864 6.0125 9.28549 6.0125Z"/>
<path d="M1.04834 6.01245H4.79247C5.5413 6.01245 5.9906 6.46176 5.9906 7.0608C5.9906 7.65985 5.5413 8.25893 4.79247 8.25893H1.04834C0.44929 8.25893 -1.57356e-05 7.65985 -1.57356e-05 7.0608C-1.57356e-05 6.46176 0.44929 6.01245 1.04834 6.01245Z"/>
</symbol>



</svg>